<svg xmlns="http://www.w3.org/2000/svg" height="1024" preserveAspectRatio="none" style="display: block;" version="1.1" viewBox="0 0 2048 2048" width="1024">
<defs>
	<linearGradient gradientUnits="userSpaceOnUse" id="Gradient1" x1="1471.35" x2="764.99" y1="7.95535" y2="2163.9">
		<stop class="stop0" offset="0" stop-color="rgb(207,0,103)" stop-opacity="1"></stop>
		<stop class="stop1" offset="1" stop-color="rgb(7,208,214)" stop-opacity="1"></stop>
	</linearGradient>
</defs>
<path d="M 0 0 L 464.276 0 L 1589.62 0 L 1590.78 0.217597 C 1604.63 2.70697 1619.6 3.17586 1633.39 5.52608 C 1676.68 12.8993 1721.95 25.1963 1761.84 43.7632 C 1808.15 65.2291 1848.03 91.4305 1886.32 125.212 C 1895.01 132.875 1909.15 145.63 1915.85 154.584 C 1922.93 161.015 1935.21 176.866 1941.48 184.746 C 1987.2 241.714 2019.39 308.316 2035.63 379.533 C 2039.16 395.364 2041.98 411.344 2044.08 427.426 C 2045.09 435.657 2046.45 453.143 2048 460.487 L 2048 589.029 L 2048 1149.64 L 2048 1375.25 L 2048 1492.3 L 2048 1587.76 L 2048 2048 L 1597.51 2048 L 455.194 2048 L 0 2048 L 0 1584.86 L 0 1561.71 L 0 1108.94 L 0 656.511 L 0 463.302 L 0 0 z" fill="url(#Gradient1)" transform="translate(0,0)"></path>
<path d="M 0 0 L 464.276 0 L 1589.62 0 L 1590.78 0.217597 C 1604.63 2.70697 1619.6 3.17586 1633.39 5.52608 C 1676.68 12.8993 1721.95 25.1963 1761.84 43.7632 C 1808.15 65.2291 1848.03 91.4305 1886.32 125.212 C 1895.01 132.875 1909.15 145.63 1915.85 154.584 C 1913.7 154.244 1913.21 154.205 1911.56 152.76 C 1903.22 167.367 1871.41 169.165 1856.31 172.731 C 1840.91 176.367 1825.51 178.151 1809.98 182.328 C 1796.35 186.105 1782.83 190.308 1769.46 194.931 C 1752.72 200.748 1740.87 204.752 1725.28 213.47 C 1714.02 219.764 1700.16 224.387 1689.22 232.128 C 1681.67 235.609 1674.15 239.137 1666.77 242.951 C 1653.77 249.541 1641.16 258.845 1628.2 265.273 C 1605.97 276.295 1589.3 289.162 1571.5 306.202 C 1560.74 316.5 1551.48 322.844 1543.84 336.371 C 1541.72 340.112 1535.9 343.145 1533.55 346.698 C 1531.19 349.651 1535.87 349.713 1532.3 352.067 L 1530.58 350.881 C 1525.4 355.881 1501.13 387.458 1497.64 393.721 L 1498.39 397.594 L 1497.44 398 L 1496 395.595 C 1494.01 396.927 1491.72 401.296 1489.7 403.625 C 1465.66 431.237 1446.38 466.09 1425.89 496.639 C 1419.1 506.76 1409.65 516.35 1405.5 527.739 L 1403.13 526.487 L 1402.07 527.918 C 1402.45 529.561 1402.8 530.891 1403.28 532.507 L 1402.5 532.765 L 1401.15 531.426 C 1394.95 541.695 1389.6 552.794 1382.86 562.669 C 1380.35 566.354 1375.18 566.575 1370.9 567.37 C 1373.78 568.457 1382.77 571.122 1384.26 572.564 L 1383.89 573.385 C 1345.84 561.112 1292.65 565.647 1250.72 564.86 C 1223.75 565.163 1196.77 565.226 1169.8 565.051 C 1158.78 565.043 1131.1 564.275 1121.77 566.633 C 1114.12 568.602 1107.18 572.695 1101.75 578.439 C 1094.41 586.079 1090.48 596.367 1090.85 606.954 C 1091.2 617.569 1095.76 627.608 1103.53 634.847 C 1122.14 651.839 1166.58 644.909 1193.43 645.968 C 1187.01 647.818 1176.04 647.937 1169.11 647.615 C 1140.63 646.29 1107.83 655.108 1093.15 623.485 L 1091.54 622.588 C 1089.65 627.7 1087.24 634.189 1085.29 639.447 C 1085.22 639.633 1079.78 642.997 1079.85 642.885 C 1067.33 663.845 1056.53 686.168 1044.04 706.984 C 1041.26 711.623 1037.14 722.66 1034.68 725.407 C 1027.08 733.867 1017.7 741.684 1009.63 749.755 C 1009.03 750.361 1010.65 753.689 1008.66 755.632 C 1007.42 754.104 1007.94 755.022 1007.27 752.776 C 994.941 758.701 968.764 767.579 955.422 763.019 C 947.064 759.37 936.71 761.87 927.947 758.926 C 909.628 752.772 886.178 742.58 878.995 723.234 C 876.443 716.36 857.516 687.867 853.186 685.144 C 855.349 691.499 857.134 691.997 860.054 697.277 C 884.777 741.985 910.59 786.202 935.782 830.658 C 946.731 849.98 952.787 855.583 949.08 879.078 L 947.727 880.352 L 946.641 880.109 C 949.684 866.787 949.344 858.112 942.485 845.784 C 934.419 831.288 925.746 817.136 917.495 802.739 L 866.471 713.048 L 833.687 654.858 C 826.755 642.564 819.846 629.241 811.684 617.808 C 784.153 579.245 741.757 558.484 694.658 566.618 C 665.414 571.763 639.33 588.111 621.953 612.188 C 615.181 621.478 609.418 632.429 602.676 641.955 C 597.583 651.618 514.921 784.316 512.707 786.235 C 512.59 786.117 512.424 786.034 512.356 785.883 C 511.446 783.84 523.912 765.953 525.504 762.451 C 512.301 768.608 451.695 745.419 437.595 738.387 C 415.678 727.456 390.229 719.545 368.481 708.54 C 328.346 688.232 287.104 668.82 245.091 652.57 C 234.745 648.569 224.004 645.318 213.759 641.012 C 155.373 611.938 88.7805 606.228 25.0438 597.165 C 20.16 596.471 7.5027 592.939 3.50496 595.149 C 0.211699 612.013 6.15961 631.438 0 656.511 L 0 463.302 L 0 0 z" fill="rgb(15,9,64)" transform="translate(0,0)"></path>
<path d="M 0 463.302 C 1.59443 456.143 2.22932 442.739 3.30552 434.821 C 6.0696 414.483 12.0491 372.003 19.514 354.165 L 20.2741 355.927 C 17.2944 369.045 5.428 414.645 7.12695 425.391 C 17.2287 436.827 29.2503 446.411 42.6498 453.711 C 47.6444 456.407 58.9202 461.433 64.1432 464.213 C 68.8011 466.692 84.3932 466.461 90.0798 468.424 C 102.446 470.283 113.995 473.362 126.48 474.546 C 135.979 475.447 150.319 471.896 159.091 474.197 C 180.091 479.706 199.316 490.065 220.988 494.289 C 224.877 495.048 233.915 501.625 238.36 503.117 C 263.248 513.185 285.519 527.2 308 541.686 C 314.11 545.624 324.336 548.081 330.718 552.378 C 347.645 561.668 364.678 571.211 381.119 581.347 C 397.095 591.197 412.041 603.429 427.692 613.884 C 445.89 626.04 464.383 638.177 482.687 650.189 C 491.65 655.448 500.799 660.623 509.999 665.45 C 513.345 667.205 521.805 675.079 524.369 675.79 C 533.227 678.246 558.302 692.343 565.749 690.808 C 577.061 688.477 594.552 645.131 602.676 641.955 C 597.583 651.618 514.921 784.316 512.707 786.235 C 512.59 786.117 512.424 786.034 512.356 785.883 C 511.446 783.84 523.912 765.953 525.504 762.451 C 512.301 768.608 451.695 745.419 437.595 738.387 C 415.678 727.456 390.229 719.545 368.481 708.54 C 328.346 688.232 287.104 668.82 245.091 652.57 C 234.745 648.569 224.004 645.318 213.759 641.012 C 155.373 611.938 88.7805 606.228 25.0438 597.165 C 20.16 596.471 7.5027 592.939 3.50496 595.149 C 0.211699 612.013 6.15961 631.438 0 656.511 L 0 463.302 z" fill="rgb(52,16,111)" transform="translate(0,0)"></path>
<path d="M 0 0 L 464.276 0 C 435.738 4.41576 417.047 4.05312 386.121 10.8531 C 270.351 35.4864 167.574 101.58 97.13 196.696 C 67.9647 235.844 44.8101 279.128 28.4325 325.116 C 25.6267 333.104 21.0291 346.168 19.514 354.165 C 12.0491 372.003 6.0696 414.483 3.30552 434.821 C 2.22932 442.739 1.59443 456.143 0 463.302 L 0 0 z" fill="rgb(243,243,243)" transform="translate(0,0)"></path>
<path d="M 1761.84 43.7632 C 1808.15 65.2291 1848.03 91.4305 1886.32 125.212 C 1895.01 132.875 1909.15 145.63 1915.85 154.584 C 1913.7 154.244 1913.21 154.205 1911.56 152.76 C 1903.22 167.367 1871.41 169.165 1856.31 172.731 C 1840.91 176.367 1825.51 178.151 1809.98 182.328 C 1796.35 186.105 1782.83 190.308 1769.46 194.931 C 1752.72 200.748 1740.87 204.752 1725.28 213.47 C 1714.02 219.764 1700.16 224.387 1689.22 232.128 C 1681.67 235.609 1674.15 239.137 1666.77 242.951 C 1653.77 249.541 1641.16 258.845 1628.2 265.273 C 1605.97 276.295 1589.3 289.162 1571.5 306.202 C 1560.74 316.5 1551.48 322.844 1543.84 336.371 C 1541.72 340.112 1535.9 343.145 1533.55 346.698 C 1531.19 349.651 1535.87 349.713 1532.3 352.067 L 1530.58 350.881 C 1525.4 355.881 1501.13 387.458 1497.64 393.721 L 1498.39 397.594 L 1497.44 398 L 1496 395.595 C 1494.01 396.927 1491.72 401.296 1489.7 403.625 C 1465.66 431.237 1446.38 466.09 1425.89 496.639 C 1419.1 506.76 1409.65 516.35 1405.5 527.739 L 1403.13 526.487 L 1402.07 527.918 C 1402.45 529.561 1402.8 530.891 1403.28 532.507 L 1402.5 532.765 L 1401.15 531.426 C 1394.95 541.695 1389.6 552.794 1382.86 562.669 C 1380.35 566.354 1375.18 566.575 1370.9 567.37 C 1373.78 568.457 1382.77 571.122 1384.26 572.564 L 1383.89 573.385 C 1345.84 561.112 1292.65 565.647 1250.72 564.86 C 1278.19 559.774 1316.27 567.002 1344.61 562.717 C 1348.1 562.19 1358.18 551.512 1360.17 548.049 C 1384.57 505.549 1408.12 460.175 1435.82 419.607 C 1459.99 384.852 1486.4 351.716 1514.89 320.41 C 1525.02 309.127 1534.96 296.999 1545.68 286.372 C 1553.28 278.843 1561.58 273.87 1569.66 267.484 C 1615.06 231.611 1665.17 202.159 1718.6 179.956 C 1731.64 174.616 1747.88 168.9 1761.47 165.643 C 1765.78 164.745 1773.13 160.412 1777.08 159.773 C 1805.83 155.119 1834.22 148.628 1862.58 141.957 C 1869.79 140.261 1878.23 139.484 1884.96 137.419 L 1886.12 137.053 C 1889.75 137.904 1890.22 138.329 1893.57 137.034 L 1893.81 135.208 C 1882.13 118.058 1830.08 85.6046 1811.95 72.1563 C 1803.55 65.9296 1765.42 49.5246 1761.84 43.7632 z" fill="rgb(52,16,111)" transform="translate(0,0)"></path>
<path d="M 602.676 641.955 C 609.418 632.429 615.181 621.478 621.953 612.188 C 639.33 588.111 665.414 571.763 694.658 566.618 C 741.757 558.484 784.153 579.245 811.684 617.808 C 819.846 629.241 826.755 642.564 833.687 654.858 L 866.471 713.048 L 917.495 802.739 C 925.746 817.136 934.419 831.288 942.485 845.784 C 949.344 858.112 949.684 866.787 946.641 880.109 L 947.727 880.352 L 949.08 879.078 C 952.787 855.583 946.731 849.98 935.782 830.658 C 910.59 786.202 884.777 741.985 860.054 697.277 C 857.134 691.997 855.349 691.499 853.186 685.144 C 857.516 687.867 876.443 716.36 878.995 723.234 C 886.178 742.58 909.628 752.772 927.947 758.926 C 936.71 761.87 947.064 759.37 955.422 763.019 C 968.764 767.579 994.941 758.701 1007.27 752.776 C 1007.94 755.022 1007.42 754.104 1008.66 755.632 C 1010.65 753.689 1009.03 750.361 1009.63 749.755 C 1017.7 741.684 1027.08 733.867 1034.68 725.407 C 1037.14 722.66 1041.26 711.623 1044.04 706.984 C 1056.53 686.168 1067.33 663.845 1079.85 642.885 C 1079.78 642.997 1085.22 639.633 1085.29 639.447 C 1087.24 634.189 1089.65 627.7 1091.54 622.588 L 1093.15 623.485 C 1107.83 655.108 1140.63 646.29 1169.11 647.615 C 1176.04 647.937 1187.01 647.818 1193.43 645.968 C 1232.46 644.719 1272.27 646.311 1311.38 645.461 C 1320.15 645.27 1346.17 644.474 1352.98 648.332 C 1357.25 653.539 1364.84 656.953 1368.02 662.482 C 1392.87 705.768 1417.31 749.41 1441.58 793.026 C 1444.03 797.421 1447.1 805.696 1445.99 810.516 C 1431.67 821.697 1422.08 840.317 1410.87 854.319 C 1410.24 855.1 1383.82 876.695 1384.17 876.552 L 1382.7 875.728 C 1377.43 881.177 1373.14 888.253 1368.77 892.47 C 1358.21 902.66 1342.12 902.033 1330.3 907.362 C 1328.1 908.355 1327.99 908.296 1325.58 908.096 C 1317.16 904.587 1309.68 888.198 1304.85 880.007 C 1298.89 870.009 1292.26 860.429 1285 851.335 C 1272.83 836.321 1258.06 821.487 1241.6 811.207 C 1236.9 808.27 1224.43 800.096 1218.87 799.71 L 1217.88 800.598 C 1228.7 806.371 1239.49 811.365 1249.31 818.988 C 1310.44 866.473 1336.39 944.097 1353.53 1016.6 C 1355.05 1023.02 1357.1 1033.1 1359.48 1038.93 C 1368.3 1081.68 1394.82 1144.09 1431.43 1171.07 C 1445.66 1181.55 1470.75 1187.32 1487.98 1190.93 C 1513.23 1149.63 1540.36 1107.86 1565.09 1066.71 C 1538.99 1065.59 1512.69 1066.48 1486.65 1066.28 C 1472.62 1066.16 1457.09 1067.48 1443.58 1065.25 C 1423.05 1061.64 1409.04 1042.61 1411 1021.96 C 1412.04 1010.95 1416.68 1003.08 1424.71 995.669 C 1434.98 986.208 1445.95 986.042 1459.13 985.988 C 1478.69 985.906 1498.31 985.857 1517.89 985.769 L 1595.65 985.675 C 1609.33 985.714 1627.93 984.68 1641.08 986.569 C 1674.03 991.3 1684.47 1024.99 1668.7 1051.52 C 1649.9 1083.15 1630.71 1112.19 1611.42 1142.58 L 1530.76 1271.67 L 1458.23 1387.18 C 1448.64 1402.41 1437.39 1422.57 1427.41 1436.68 C 1420.34 1446.75 1411.74 1455.66 1401.93 1463.08 C 1377.14 1481.71 1345.84 1489.47 1315.22 1484.57 C 1260.99 1476.01 1238.47 1437.46 1214.35 1393.93 C 1202.32 1372.37 1190.42 1350.72 1178.67 1329 C 1171.92 1316.52 1163 1298.93 1155.69 1287.32 C 1154.04 1282.97 1150.78 1277.77 1148.62 1273.48 C 1135.53 1247.55 1118.01 1222.52 1106.08 1196.21 C 1092.95 1167.23 1120.99 1137.89 1151.25 1144.17 C 1159.03 1145.73 1166.18 1149.54 1171.8 1155.14 C 1187.77 1170.81 1209.91 1226.57 1224.34 1247.05 L 1225.18 1248.22 C 1225.79 1242.71 1200.23 1199.83 1195.65 1188.73 C 1203 1194.87 1218.79 1187.63 1228.72 1185.56 C 1251.43 1180.82 1292.47 1146.32 1304.74 1127.56 C 1307.2 1135.2 1322.16 1162.38 1326.69 1169.04 L 1328.33 1169.12 C 1325.21 1161.95 1320.89 1155.19 1317.25 1148.25 C 1309.07 1132.69 1301.42 1116.81 1295.69 1100.17 C 1275.1 1040.31 1253.27 900.604 1189.73 874.315 C 1176.67 868.912 1162.3 869.623 1149.45 875.279 C 1116.63 889.729 1093.53 938.095 1081.89 969.699 C 1052.22 1050.29 1048.03 1122.19 993.441 1194.39 C 976.187 1217.21 955.765 1236.19 929.647 1248.45 C 916.064 1254.83 900.933 1259.16 885.846 1259.22 C 844.253 1259.51 810.405 1242.7 781.839 1212.73 C 733.194 1161.7 712.155 1092.2 695.347 1025.46 C 685.151 986.475 675.794 949.671 651.623 916.527 C 625.451 880.64 602.089 868.347 559.553 861.501 C 550.221 878.031 539.244 893.753 529.122 909.858 C 513.398 935.417 497.5 960.869 481.431 986.213 L 559.616 985.938 C 587.506 985.852 624.851 979.547 637.235 1011.15 C 641.197 1021.24 640.892 1032.5 636.391 1042.36 C 632.922 1050.04 622.745 1061.95 614.899 1063.24 C 579.629 1068.57 538.483 1065.28 502.762 1065.91 C 484.505 1066.23 404.347 1068.1 392.077 1061.66 C 382.073 1056.4 374.634 1047.3 371.467 1036.46 C 368.978 1027.92 369.216 1019.64 373.018 1011.68 C 383.773 989.168 399.607 966.952 412.995 945.983 L 470.855 853.637 C 483.036 834.406 502.105 805.97 512.707 786.235 C 514.921 784.316 597.583 651.618 602.676 641.955 z" fill="rgb(243,243,243)" transform="translate(0,0)"></path>
<path d="M 946.641 880.109 L 947.727 880.352 L 949.08 879.078 C 952.787 855.583 946.731 849.98 935.782 830.658 C 910.59 786.202 884.777 741.985 860.054 697.277 C 857.134 691.997 855.349 691.499 853.186 685.144 C 857.516 687.867 876.443 716.36 878.995 723.234 C 886.178 742.58 909.628 752.772 927.947 758.926 C 936.71 761.87 947.064 759.37 955.422 763.019 C 968.764 767.579 994.941 758.701 1007.27 752.776 C 1007.94 755.022 1007.42 754.104 1008.66 755.632 C 1010.65 753.689 1009.03 750.361 1009.63 749.755 C 1017.7 741.684 1027.08 733.867 1034.68 725.407 C 1037.14 722.66 1041.26 711.623 1044.04 706.984 C 1056.53 686.168 1067.33 663.845 1079.85 642.885 C 1079.78 642.997 1085.22 639.633 1085.29 639.447 C 1087.24 634.189 1089.65 627.7 1091.54 622.588 L 1093.15 623.485 C 1107.83 655.108 1140.63 646.29 1169.11 647.615 C 1176.04 647.937 1187.01 647.818 1193.43 645.968 C 1232.46 644.719 1272.27 646.311 1311.38 645.461 C 1320.15 645.27 1346.17 644.474 1352.98 648.332 C 1357.25 653.539 1364.84 656.953 1368.02 662.482 C 1392.87 705.768 1417.31 749.41 1441.58 793.026 C 1444.03 797.421 1447.1 805.696 1445.99 810.516 C 1431.67 821.697 1422.08 840.317 1410.87 854.319 C 1410.24 855.1 1383.82 876.695 1384.17 876.552 L 1382.7 875.728 C 1377.43 881.177 1373.14 888.253 1368.77 892.47 C 1358.21 902.66 1342.12 902.033 1330.3 907.362 C 1328.1 908.355 1327.99 908.296 1325.58 908.096 C 1317.16 904.587 1309.68 888.198 1304.85 880.007 C 1298.89 870.009 1292.26 860.429 1285 851.335 C 1272.83 836.321 1258.06 821.487 1241.6 811.207 C 1236.9 808.27 1224.43 800.096 1218.87 799.71 L 1217.88 800.598 C 1094.87 761.132 1032.82 866.147 1000.06 967.142 C 988.087 1004.05 977.951 1058.3 961.574 1092.15 L 959.815 1092.49 C 957.297 1095.38 955.688 1102.8 953.399 1107.26 C 942.066 1129.37 923.949 1164.18 899.738 1173.62 C 893.234 1176.15 859.485 1171.52 851.856 1166.9 C 819.193 1147.1 799.948 1095.2 789.334 1060.26 C 788.638 1057.97 785.33 1049.44 785.12 1048.23 C 783.867 1040.99 782.909 1036.84 780.781 1029.75 L 778.964 1028.93 C 775.049 1016.25 772.771 1001.52 768.997 988.488 C 743.713 901.161 698.773 816.253 604.509 790.853 C 620.667 764.857 636.676 738.77 652.537 712.592 C 661.89 696.91 683.632 653.213 701.317 646.761 C 723.669 638.607 743.291 652.779 752.171 672.741 C 755.218 679.59 763.143 691.674 767.424 699.173 C 793.112 745.155 819.033 791.007 845.185 836.727 C 851.852 848.448 869.055 881.421 875.531 890.121 C 879.262 895.058 884.06 899.088 889.568 901.91 C 899.189 906.969 910.45 907.915 920.781 904.533 C 933.992 900.124 940.647 891.773 946.641 880.109 z" fill="rgb(52,16,111)" transform="translate(0,0)"></path>
<path d="M 1225.18 1248.22 C 1225.79 1242.71 1200.23 1199.83 1195.65 1188.73 C 1203 1194.87 1218.79 1187.63 1228.72 1185.56 C 1251.43 1180.82 1292.47 1146.32 1304.74 1127.56 C 1307.2 1135.2 1322.16 1162.38 1326.69 1169.04 L 1328.33 1169.12 C 1359.77 1212.99 1388.95 1249.25 1444.82 1261.84 L 1444.13 1262.76 C 1437.42 1271.8 1427.73 1288.58 1421.45 1298.77 L 1381.18 1363.73 C 1375.12 1373.42 1367.66 1386.56 1360.36 1395.06 C 1344.55 1413.48 1312.58 1408.11 1301.02 1387.49 C 1277.66 1345.79 1254.77 1303.96 1232.19 1261.85 C 1229.8 1257.41 1227.22 1252.8 1225.18 1248.22 z" fill="rgb(220,15,146)" transform="translate(0,0)"></path>
<path d="M 778.964 1028.93 L 780.781 1029.75 C 782.909 1036.84 783.867 1040.99 785.12 1048.23 C 785.33 1049.44 788.638 1057.97 789.334 1060.26 C 799.948 1095.2 819.193 1147.1 851.856 1166.9 C 859.485 1171.52 893.234 1176.15 899.738 1173.62 C 923.949 1164.18 942.066 1129.37 953.399 1107.26 C 955.688 1102.8 957.297 1095.38 959.815 1092.49 L 961.574 1092.15 C 960.18 1100.24 948.661 1120.32 944.839 1127.75 C 927.707 1161.07 893.611 1197.59 853.296 1171.03 C 810.866 1143.08 789.451 1077.03 778.964 1028.93 z" fill="rgb(108,34,196)" transform="translate(0,0)"></path>
<path d="M 0 656.511 C 6.15961 631.438 0.211699 612.013 3.50496 595.149 C 7.5027 592.939 20.16 596.471 25.0438 597.165 C 88.7805 606.228 155.373 611.938 213.759 641.012 C 224.004 645.318 234.745 648.569 245.091 652.57 C 287.104 668.82 328.346 688.232 368.481 708.54 C 390.229 719.545 415.678 727.456 437.595 738.387 C 451.695 745.419 512.301 768.608 525.504 762.451 C 523.912 765.953 511.446 783.84 512.356 785.883 C 512.424 786.034 512.59 786.117 512.707 786.235 C 502.105 805.97 483.036 834.406 470.855 853.637 L 412.995 945.983 C 399.607 966.952 383.773 989.168 373.018 1011.68 C 369.216 1019.64 368.978 1027.92 371.467 1036.46 C 374.634 1047.3 382.073 1056.4 392.077 1061.66 C 404.347 1068.1 484.505 1066.23 502.762 1065.91 C 538.483 1065.28 579.629 1068.57 614.899 1063.24 C 622.745 1061.95 632.922 1050.04 636.391 1042.36 C 640.892 1032.5 641.197 1021.24 637.235 1011.15 C 624.851 979.547 587.506 985.852 559.616 985.938 L 481.431 986.213 C 497.5 960.869 513.398 935.417 529.122 909.858 C 539.244 893.753 550.221 878.031 559.553 861.501 C 602.089 868.347 625.451 880.64 651.623 916.527 C 675.794 949.671 685.151 986.475 695.347 1025.46 C 712.155 1092.2 733.194 1161.7 781.839 1212.73 C 810.405 1242.7 844.253 1259.51 885.846 1259.22 L 884.19 1261.01 C 890.053 1261.96 903.371 1259.42 909.693 1257.76 C 939.361 1249.96 966.255 1230.73 985.779 1207.37 C 991.17 1200.93 995.937 1193.36 1001.77 1187.59 L 1003.42 1187.88 C 1004.44 1189.8 1008.63 1200.88 1009.76 1201.43 C 1017.4 1205.1 1022.05 1218.42 1031.76 1216.16 C 1032.32 1216.03 1036.28 1223.16 1038.96 1223.53 L 1041.48 1221.41 L 1042.84 1221.88 L 1042.48 1223.2 C 1038.73 1225.28 1037.81 1224.94 1036.17 1228.05 C 1037.69 1230.97 1036.59 1230.27 1039 1231.08 L 1041.56 1228.11 C 1048.86 1230.83 1038.3 1230.66 1051.58 1231.63 C 1051.3 1234.23 1051.51 1232.96 1050.97 1235.46 C 1055.42 1240.33 1059.11 1235.88 1061.69 1240.04 C 1059.93 1241.91 1060.51 1241.31 1058.06 1242.53 L 1058.05 1244.17 C 1062.14 1245.96 1065.47 1246.1 1067.73 1248.68 L 1067.12 1250.71 C 1068.47 1252.25 1069.25 1253.05 1070.75 1254.44 C 1069.11 1255.5 1068.4 1256.01 1066.95 1257.4 C 1074.85 1268.92 1058.69 1268.29 1058.96 1274.11 L 1061.59 1276.66 L 1053.99 1281.03 C 1054.76 1282.94 1055.52 1284.16 1055.58 1286.12 C 1053.28 1287.73 1046.66 1290.62 1047.07 1290.18 C 1044.13 1293.31 1039.68 1300.35 1037.18 1303.95 C 1036.62 1304.75 1033.69 1303.84 1031.35 1306.77 C 1032.15 1308.13 1031.57 1307.57 1033.21 1308.31 C 1031.1 1311.25 1029.43 1311.57 1025.76 1311.64 C 1026.53 1313.8 1026.8 1313.68 1028.34 1315.59 C 1022.69 1318.96 1012.06 1323.06 1011.98 1330.14 C 1011.98 1330.58 1009.59 1330.56 1008.25 1330.35 L 1006.63 1331.84 L 1003.12 1331.82 C 1002.1 1333.34 977.466 1347.61 973.833 1349.83 C 974.346 1352.15 974.221 1351.14 974.294 1352.93 C 972.748 1352.9 970.805 1352.85 968.464 1352.8 C 958.57 1359.57 944.821 1369.71 936.401 1377.47 C 929.403 1383.92 926.859 1399.69 923.773 1403.15 C 925.627 1403.78 927.508 1404.57 929.405 1404.8 C 941.152 1409.68 956.995 1420.05 956.362 1434.4 C 959.127 1462.63 948.991 1482.35 918.412 1485.72 C 906.923 1486.99 894.32 1485.04 883.11 1485.99 C 865.268 1484.75 836.609 1485.81 818.073 1485.92 L 749.351 1485.87 C 737.903 1485.86 726.118 1485.58 714.726 1485.76 C 676.94 1486.33 639.739 1469.61 618.627 1437.58 C 600.572 1410.18 585.804 1380.66 570.047 1351.91 C 544.441 1304.41 518.006 1257.36 490.754 1210.78 C 491.295 1220.94 506.192 1237.12 509.01 1247.42 L 507.653 1249.17 C 485.047 1259.04 451.465 1248.5 428.384 1245.11 C 373.413 1237.05 318.307 1229.21 262.666 1227.6 C 254.422 1227.36 246.227 1226.56 237.995 1226.29 C 178.856 1231.48 119.62 1234.22 60.5831 1239.76 C 60.1801 1238 60.6636 1238.65 59.2499 1237.74 L 57.318 1238.94 C 56.8099 1239.25 52.2509 1242.18 52.1422 1242.21 C 43.232 1244.3 11.4868 1248.8 4.074 1245.73 C -2.13879 1213.75 9.78147 1135.49 0 1108.94 L 0 656.511 z" fill="rgb(108,34,196)" transform="translate(0,0)"></path>
<path d="M 490.754 1210.78 C 478.053 1184.31 474.503 1163.48 506.675 1146.19 C 520.769 1138.62 544.065 1146.27 553.463 1158.58 C 563.737 1173.22 573.163 1192.91 581.785 1208.83 L 650.418 1333.78 C 658.513 1348.28 679.382 1390.95 691.536 1399.51 C 703.897 1408.22 757.492 1406.42 774.418 1405.12 L 775.466 1405.19 C 787.154 1405.88 802.157 1405.35 814.122 1405.3 L 883.154 1405.03 C 916.071 1404.9 940.448 1398.77 956.362 1434.4 C 959.127 1462.63 948.991 1482.35 918.412 1485.72 C 906.923 1486.99 894.32 1485.04 883.11 1485.99 C 865.268 1484.75 836.609 1485.81 818.073 1485.92 L 749.351 1485.87 C 737.903 1485.86 726.118 1485.58 714.726 1485.76 C 676.94 1486.33 639.739 1469.61 618.627 1437.58 C 600.572 1410.18 585.804 1380.66 570.047 1351.91 C 544.441 1304.41 518.006 1257.36 490.754 1210.78 z" fill="rgb(243,243,243)" transform="translate(0,0)"></path>
<path d="M 774.418 1405.12 C 781.353 1400.48 799.232 1406.49 806.124 1402.32 L 806.338 1400.97 C 804.217 1398.86 792.712 1377.22 789.594 1372.99 C 786.59 1368.92 779.495 1350.42 782.031 1345.56 C 785.944 1338.06 795.522 1340.28 801.494 1343.73 C 803.456 1342.41 802.446 1343 804.52 1341.93 C 835.373 1350.96 859.82 1361.77 879.163 1389.45 C 879.659 1390.16 877.36 1396.91 882.704 1402.01 C 891.697 1404.39 913.867 1403.8 923.773 1403.15 C 925.627 1403.78 927.508 1404.57 929.405 1404.8 C 941.152 1409.68 956.995 1420.05 956.362 1434.4 C 940.448 1398.77 916.071 1404.9 883.154 1405.03 L 814.122 1405.3 C 802.157 1405.35 787.154 1405.88 775.466 1405.19 L 774.418 1405.12 z" fill="rgb(158,51,179)" transform="translate(0,0)"></path>
<path d="M 0 1584.86 C 4.65086 1620.09 6.9747 1650.93 16.6916 1686.04 C 46.0796 1792.23 106.885 1881.55 193.841 1948.37 C 251.555 1992.36 318.315 2022.99 389.303 2038.05 C 403.187 2040.82 417.158 2043.12 431.194 2044.96 C 436.127 2045.6 451.218 2046.97 455.194 2048 L 0 2048 L 0 1584.86 z" fill="rgb(243,243,243)" transform="translate(0,0)"></path>
<path d="M 2048 1587.76 L 2048 2048 L 1597.51 2048 C 1601.82 2046.89 1615.81 2045.44 1620.96 2044.75 C 1634.73 2042.97 1648.43 2040.66 1662.03 2037.83 C 1837.76 2000.93 1987.36 1859.14 2031.82 1684.98 C 2036.93 1665.35 2040.88 1645.43 2043.65 1625.33 C 2045.35 1612.84 2046.21 1599.99 2048 1587.76 z" fill="rgb(243,243,243)" transform="translate(0,0)"></path>
<path d="M 1250.72 564.86 C 1292.65 565.647 1345.84 561.112 1383.89 573.385 C 1432.87 598.155 1442.73 628.948 1468.38 674.175 L 1526.24 776.123 C 1537.02 795.274 1549.42 818.779 1560.83 837.192 C 1568.52 850.866 1574.65 861.973 1569.9 878.23 C 1563.11 901.508 1540.33 911.337 1517.99 904.27 C 1497.78 892.6 1493.79 881.349 1482.61 861.594 C 1476.36 850.544 1470.06 839.291 1463.82 828.216 L 1397.95 711.5 C 1388.4 694.231 1370.81 654.578 1352.98 648.332 C 1346.17 644.474 1320.15 645.27 1311.38 645.461 C 1272.27 646.311 1232.46 644.719 1193.43 645.968 C 1166.58 644.909 1122.14 651.839 1103.53 634.847 C 1095.76 627.608 1091.2 617.569 1090.85 606.954 C 1090.48 596.367 1094.41 586.079 1101.75 578.439 C 1107.18 572.695 1114.12 568.602 1121.77 566.633 C 1131.1 564.275 1158.78 565.043 1169.8 565.051 C 1196.77 565.226 1223.75 565.163 1250.72 564.86 z" fill="rgb(243,243,243)" transform="translate(0,0)"></path>
<path d="M 818.073 1485.92 C 836.609 1485.81 865.268 1484.75 883.11 1485.99 C 879.07 1487.04 878.555 1487.01 874.423 1486.33 L 872.839 1487.85 C 873.666 1490.95 874.97 1494.86 875.121 1497.99 C 875.548 1506.92 889.656 1509.53 893.463 1514.24 C 907.986 1532.21 919.67 1552.95 933.592 1571.5 C 937.696 1576.99 941.286 1583.27 946.382 1587.46 L 943.007 1588.26 L 943.596 1589.68 C 945.945 1590.48 946.065 1590.5 948.536 1590.74 L 949.076 1591.69 C 947.281 1591.45 944.858 1590.73 943.715 1591.47 C 947.965 1597.21 954.409 1593.98 957.121 1599.13 L 953.078 1599.85 C 958.46 1605.18 957.457 1598.13 962.429 1607.02 C 971.456 1623.15 996.509 1642.91 1005.52 1656.98 C 1008.79 1663.11 1009.67 1665.63 1014.82 1670.26 L 1020.34 1675.28 C 1022.27 1674.81 1021.44 1675.25 1022.88 1674 C 1023.95 1675.61 1025.25 1677.92 1025.43 1679.78 C 1026.14 1686.96 1038.61 1688.54 1037.92 1694.66 L 1036.57 1695.53 L 1035.45 1698.09 C 1036.8 1700.1 1037.75 1702.18 1038.71 1704.39 L 1040.04 1704.94 C 1040.31 1701.12 1040.19 1698.36 1040.06 1694.52 L 1041.01 1693.83 C 1045.11 1700.24 1049.81 1702.84 1052.44 1710.1 L 1052.02 1711.4 C 1054.45 1712.82 1071.58 1722.44 1072.15 1723.82 C 1074.57 1729.59 1087.04 1737.38 1088.1 1742.48 L 1086.83 1742.82 C 1087.12 1743.73 1087.78 1744.9 1088.23 1745.78 C 1091.85 1747.06 1102.53 1756.35 1105.16 1759.51 L 1103.59 1761.47 C 1106.67 1767.16 1125.21 1774.28 1130.45 1778.4 C 1108.29 1771.14 1086.43 1755.93 1065.85 1744.84 C 1060.92 1742.19 1055.38 1736.12 1050.21 1733.01 C 1044.9 1729.54 1041.16 1726.25 1036.12 1722.83 L 1034.54 1721.76 C 1032.07 1720.18 1027.09 1718.48 1025.81 1717.38 C 1023.65 1715.5 1018.18 1707.82 1014.83 1709.16 C 1010.58 1705.6 1006.47 1701.87 1002.52 1697.99 C 1000.69 1696.23 999.259 1694.91 997.311 1693.28 C 989.967 1683.49 966.352 1661.79 960.203 1652.12 L 959.275 1651.27 C 956.82 1648.97 955.489 1647.26 953.407 1644.63 C 949.927 1640.43 946.17 1636.49 942.362 1632.59 C 910.236 1599.82 880.263 1564.99 848.622 1531.77 C 838.056 1520.68 826.408 1510.35 815.624 1499.25 L 816.112 1499.11 C 829.069 1507.49 852.737 1533.59 863.867 1545.67 L 915.284 1601.54 C 920.537 1607.2 934.965 1623.45 940.37 1627.56 L 940.609 1626.42 C 937.758 1623.56 937.949 1620.89 934.33 1617.68 C 916.75 1602.09 903.208 1582.74 888.894 1564.26 C 880.383 1553.28 869.563 1543.34 861.146 1532.13 C 853.413 1521.5 841.279 1512.93 834.973 1502.58 C 833.756 1500.59 832.422 1498.02 831.039 1495.81 C 834.578 1495.69 843.217 1509.21 848.268 1503.91 C 848.993 1498.37 846.522 1492.77 844.12 1487.84 C 836.754 1485.38 827.492 1489.17 818.073 1485.92 z" fill="rgb(158,51,179)" transform="translate(0,0)"></path>
<path d="M 960.203 1652.12 C 960.925 1651.5 961.992 1649.43 962.957 1649.42 C 965.047 1649.41 972.339 1656.81 973.286 1658.32 C 976.765 1663.86 981.037 1665.11 985.383 1669.35 C 991.682 1675.5 1007.64 1687.69 1011.62 1694.38 C 1022.93 1707.13 1038.16 1719.56 1051.19 1730.42 C 1051.32 1731.3 1050.62 1732.22 1050.21 1733.01 C 1044.9 1729.54 1041.16 1726.25 1036.12 1722.83 L 1034.54 1721.76 C 1032.07 1720.18 1027.09 1718.48 1025.81 1717.38 C 1023.65 1715.5 1018.18 1707.82 1014.83 1709.16 C 1010.58 1705.6 1006.47 1701.87 1002.52 1697.99 C 1000.69 1696.23 999.259 1694.91 997.311 1693.28 C 989.967 1683.49 966.352 1661.79 960.203 1652.12 z" fill="rgb(97,97,190)" transform="translate(0,0)"></path>
<path d="M 953.407 1644.63 C 954.212 1641.3 954.596 1639.36 955.266 1636.1 L 955.549 1635.94 C 961.215 1637.96 959.536 1646.7 959.275 1651.27 C 956.82 1648.97 955.489 1647.26 953.407 1644.63 z" fill="rgb(97,97,190)" transform="translate(0,0)"></path>
<path d="M 1035.45 1698.09 C 1033.72 1697.59 1026.98 1697.98 1027.55 1693.9 C 1028.33 1688.26 1034.63 1693.9 1036.57 1695.53 L 1035.45 1698.09 z" fill="rgb(137,87,181)" transform="translate(0,0)"></path>
<path d="M 1088.23 1745.78 C 1085.96 1745.3 1075.79 1740.61 1078.66 1738.71 C 1079.39 1738.22 1084.15 1741.82 1086.83 1742.82 C 1087.12 1743.73 1087.78 1744.9 1088.23 1745.78 z" fill="rgb(137,87,181)" transform="translate(0,0)"></path>
<path d="M 1052.02 1711.4 C 1049.55 1711.55 1048.05 1710.92 1046.89 1708.39 C 1046.57 1707.68 1046.54 1706.87 1046.81 1706.13 C 1047.02 1705.59 1047.1 1705.53 1047.52 1705.32 C 1047.7 1705.36 1051.33 1709.24 1052.44 1710.1 L 1052.02 1711.4 z" fill="rgb(137,87,181)" transform="translate(0,0)"></path>
<path d="M 1019.47 1691.62 C 1023.58 1693.87 1028.77 1699.21 1032.26 1702.59 C 1035.88 1706.08 1040.88 1705.52 1040.33 1711.34 C 1038.65 1710.47 1036.08 1708.92 1034.58 1708.24 C 1034.24 1708.44 1033.9 1708.64 1033.56 1708.84 C 1034.65 1709.45 1026.82 1703.06 1027.33 1703.66 C 1021.88 1697.28 1018.17 1700.6 1019.47 1691.62 z" fill="rgb(137,87,181)" transform="translate(0,0)"></path>
<path d="M 1006.63 1331.84 C 1007.24 1333.11 1007.46 1333.2 1008.35 1334.31 C 1013.04 1335.39 1016.29 1332.32 1020.92 1331.77 C 1024.4 1331.35 1028.12 1331.82 1031.66 1331.24 C 1042.78 1329.42 1059.6 1323.93 1069.84 1319.56 C 1090.04 1310.96 1106.87 1289.02 1120.59 1272.63 C 1125.37 1266.91 1132.44 1262.51 1134.33 1255.85 C 1134.69 1254.59 1134.5 1255.01 1135.65 1254.17 L 1137.86 1258.09 C 1137.55 1262.37 1097.38 1312.65 1092.71 1317.21 C 1077.5 1332.07 1003.66 1364.49 985.728 1361.99 C 985.374 1362.32 985.032 1362.67 984.667 1363 C 978.565 1368.43 947.959 1375.96 947.423 1382.3 C 947.391 1382.68 947.391 1383.06 947.375 1383.44 C 944.943 1384.93 942.207 1385.76 939.509 1386.74 C 939.062 1388.94 939.035 1388.11 939.791 1390.26 C 938.251 1392.24 938.373 1392.13 936.193 1393.38 C 935.236 1395.87 934.537 1397.69 933.77 1400.27 C 931.032 1401.83 930.83 1401.99 929.405 1404.8 C 927.508 1404.57 925.627 1403.78 923.773 1403.15 C 926.859 1399.69 929.403 1383.92 936.401 1377.47 C 944.821 1369.71 958.57 1359.57 968.464 1352.8 C 970.805 1352.85 972.748 1352.9 974.294 1352.93 C 974.221 1351.14 974.346 1352.15 973.833 1349.83 C 977.466 1347.61 1002.1 1333.34 1003.12 1331.82 L 1006.63 1331.84 z" fill="rgb(158,51,179)" transform="translate(0,0)"></path>
<path d="M 1014.83 1709.16 C 1018.18 1707.82 1023.65 1715.5 1025.81 1717.38 C 1027.09 1718.48 1032.07 1720.18 1034.54 1721.76 L 1036.12 1722.83 C 1041.16 1726.25 1044.9 1729.54 1050.21 1733.01 C 1055.38 1736.12 1060.92 1742.19 1065.85 1744.84 C 1086.43 1755.93 1108.29 1771.14 1130.45 1778.4 C 1134.41 1779.22 1159.45 1792.38 1160.74 1796.15 L 1159.63 1796.45 L 1159.04 1794.21 C 1154.59 1793.51 1147.58 1792.53 1143.46 1790.91 C 1135.85 1787.91 1095.6 1763.54 1090.62 1765.63 C 1107.06 1780.1 1129.9 1791.69 1150.02 1800.47 C 1166.02 1812.33 1196.1 1818.42 1211.14 1825.44 C 1152.53 1811.93 1092 1773.51 1044.98 1736.87 C 1037.39 1730.95 1020.3 1716.34 1014.83 1709.16 z" fill="rgb(87,118,188)" transform="translate(0,0)"></path>
<path d="M 282.197 1445.85 C 282.916 1445.66 282.876 1445.9 283.571 1446.24 C 282.574 1446.36 282.733 1446.57 282.197 1445.85 z" fill="rgb(4,143,200)" transform="translate(0,0)"></path>
<path d="M 1589.62 0 L 2048 0 L 2048 460.487 C 2046.45 453.143 2045.09 435.657 2044.08 427.426 C 2041.98 411.344 2039.16 395.364 2035.63 379.533 C 2019.39 308.316 1987.2 241.714 1941.48 184.746 C 1935.21 176.866 1922.93 161.015 1915.85 154.584 C 1909.15 145.63 1895.01 132.875 1886.32 125.212 C 1848.03 91.4305 1808.15 65.2291 1761.84 43.7632 C 1721.95 25.1963 1676.68 12.8993 1633.39 5.52608 C 1619.6 3.17586 1604.63 2.70697 1590.78 0.217597 L 1589.62 0 z" fill="rgb(243,243,243)" transform="translate(0,0)"></path>
<metadata><recraft-signature>{"signed_by": "recraft", "signature_b64": "2VemRvxuf8DuzzuSRBAnmOIiCZ+lqlcv94/SodwjpdFH9L5mVfTeXpiFlDLuAay0xbzxKaCOrWLGegsf6s+aAA==", "signing_algo": "Ed25519", "generation_timestamp": 1777044629, "identifier": "038ff676-bc0f-451b-83eb-1b8d62bc949c"}</recraft-signature></metadata></svg>