<svg xmlns="http://www.w3.org/2000/svg" height="1024" preserveAspectRatio="none" style="display: block;" version="1.1" viewBox="0 0 2048 2048" width="1024">
<defs>
	<linearGradient gradientUnits="userSpaceOnUse" id="Gradient1" x1="761.366" x2="781.516" y1="1420.03" y2="1435.62">
		<stop class="stop0" offset="0" stop-color="rgb(241,228,236)" stop-opacity="1"></stop>
		<stop class="stop1" offset="1" stop-color="rgb(255,255,255)" stop-opacity="1"></stop>
	</linearGradient>
</defs>
<path d="M 0 0 L 2048 0 L 2048 2048 L 0 2048 L 0 0 z" fill="rgb(255,255,255)" transform="translate(0,0)"></path>
<path d="M 677.872 289.498 L 1156.72 289.231 L 1305.56 289.29 C 1366.64 289.324 1413.99 286.297 1473.86 300.741 C 1540.7 316.882 1601.93 350.836 1651.01 398.993 C 1725.39 471.807 1764.18 568.866 1765.14 672.538 L 1765.19 1131.09 L 1765.19 1293.32 C 1765.17 1355.36 1768.36 1410.83 1753.42 1471.59 C 1736.62 1537.69 1702.51 1598.11 1654.59 1646.62 C 1576.83 1725.25 1481.26 1759.22 1372.25 1759.83 L 883.511 1759.94 L 740.135 1759.95 C 682.576 1759.99 638.41 1762.64 582.073 1749.78 C 514.112 1734.8 451.609 1701.35 401.461 1653.09 C 326.715 1580.96 285.047 1482.73 284.503 1379.01 C 284.245 1329.74 284.469 1280.46 284.424 1231.19 L 284.377 908.625 L 284.491 740.7 C 284.591 692.186 282.315 640.774 292.495 593.43 C 307.623 523.071 341.028 458.116 391.236 406.302 C 448.471 347.057 523.328 307.908 604.638 294.696 C 629.889 290.707 652.427 289.919 677.872 289.498 z" fill="rgb(0,0,0)" transform="translate(0,0)"></path>
<path d="M 674.941 294.472 C 684.02 294.249 693.38 294.253 702.481 294.189 L 1172.7 294.011 L 1317 294.107 C 1367.84 294.191 1415.4 291.984 1465.31 303.484 C 1640.53 343.859 1759.24 494.172 1760.11 673.29 L 1759.96 1148.41 L 1759.95 1300.84 C 1760 1361.16 1763.32 1411.1 1748.87 1470 C 1732.33 1536.17 1697.97 1596.53 1649.53 1644.53 C 1575.84 1718.67 1481.02 1754.55 1377.25 1754.95 L 885.413 1755 L 739.579 1755.03 C 683.513 1755.03 636.79 1757.78 581.804 1745.07 C 514.048 1729.41 451.871 1695.51 402.013 1647.03 C 332.205 1580.11 290.25 1480.94 289.849 1384.89 C 289.631 1332.78 289.858 1280.45 289.836 1228.32 L 289.942 893.645 L 289.707 739.152 C 289.603 691.171 287.114 642.586 297.066 595.588 C 312.121 524.489 344.715 461.456 395.274 409.006 C 450.829 351.601 523.211 313.366 601.942 299.836 C 627.324 295.665 649.348 294.933 674.941 294.472 z" fill="rgb(237,57,129)" transform="translate(0,0)"></path>
<path d="M 1025.53 311.692 C 1031.96 319.057 1067.26 412.553 1073.7 428.857 L 1442.72 428.9 C 1459.88 444.914 1476.91 461.062 1493.82 477.343 L 1493.61 736.258 L 1493.66 816.654 C 1493.53 862.759 1486.66 865.916 1518.6 901.712 C 1579.71 970.187 1665.51 992.274 1747.45 1024.4 C 1700.95 1041.43 1647.59 1061.25 1603.94 1083.25 C 1537.25 1116.85 1482.63 1174.3 1460.98 1246.79 C 1441.83 1310.93 1451.29 1360.48 1482.26 1418.59 C 1499.47 1427.52 1511.69 1433.43 1525.99 1446.26 C 1554.92 1471.71 1562.04 1508.06 1559.97 1544.96 C 1559.11 1560.28 1561 1578.12 1560.38 1593.73 C 1560.09 1601.06 1560.88 1607.22 1559.12 1614.66 C 1550.51 1651.11 1520.34 1648.71 1491.46 1648.54 L 1440.45 1648.33 C 1385.8 1648.26 1330.03 1649.14 1275.56 1648.49 C 1272.58 1641.8 1267.64 1626.36 1265.03 1618.86 L 1243.51 1618.89 C 1239.09 1629.31 1235.8 1637.89 1232.06 1648.59 C 1190.63 1647.23 1148.37 1649.45 1106.93 1647.76 C 1092.52 1647.18 1082.51 1638.37 1073.94 1627.5 C 1059.85 1661.92 1045.35 1696.17 1030.45 1730.25 C 1028.71 1734.27 1026.63 1738.53 1024.77 1742.54 C 1007.87 1710.21 994.903 1668.61 978.293 1635.73 C 955.036 1652.82 938.849 1648.35 911.244 1648.46 L 828.554 1648.83 L 817.545 1618.97 L 796.024 1618.99 C 792.521 1628.86 788.95 1638.71 785.311 1648.53 L 614.135 1648.43 C 589.661 1648.43 564.617 1648.72 540.49 1648.21 C 487.246 1646.37 497.094 1599.93 496.008 1564.22 C 494.481 1514.05 495.741 1471.55 538.968 1438.22 C 544.807 1433.72 560.549 1425.59 564.157 1420.09 C 605.858 1355.51 604.315 1274.94 571.04 1207.5 C 518.967 1101.96 405.154 1059.72 298.982 1024.43 C 326.916 1015.86 355.132 1003.98 382.488 993.616 C 449.167 968.36 523.578 926.816 559.5 862.238 L 559.168 476.673 C 575.347 460.919 591.334 444.969 607.126 428.826 L 978.651 428.827 C 994.101 392.116 1011.6 348.797 1025.53 311.692 z" fill="rgb(0,0,0)" transform="translate(0,0)"></path>
<path d="M 730.552 433.198 L 773.812 433.286 L 773.102 689.562 C 773.073 704.931 774.836 714.451 786.475 726.103 C 802.188 741.834 826.32 739.052 847.1 738.631 C 822.546 785.738 817.816 833.077 842.964 882.044 C 860.967 917.099 902.337 940.421 939.686 918.251 C 974.605 897.524 981.16 863.379 990.968 827.451 C 995.2 867.416 1013.58 914.579 1056.91 925.234 C 1073.06 929.202 1090.12 926.415 1104.16 917.517 C 1141.75 894.093 1155.71 845.495 1153.22 803.479 C 1151.72 778.335 1145.36 760.29 1132.25 739.174 L 1216.39 739.142 C 1227.29 739.147 1238.46 739.053 1249.33 739.101 C 1308.77 739.366 1299.05 686.365 1298.92 644.931 C 1362.1 645.163 1425.27 644.998 1488.44 644.434 L 1488.3 824.076 C 1434.97 808.495 1417.17 789.532 1402.39 735.701 C 1388.93 793.046 1370.62 809.678 1314.83 825.922 C 1370.14 845.207 1391.28 858.063 1402.9 917.976 C 1418.98 860.152 1431.24 845.571 1488.41 827.111 C 1488.93 897.999 1488.83 968.892 1488.12 1039.78 C 1434.16 1024.17 1414.66 1002.34 1402.94 947.548 C 1392.47 1005.45 1368.89 1025.4 1314.53 1042.21 C 1372.62 1058.56 1387.86 1073 1403.49 1131.27 C 1405.93 1117.38 1410.58 1103.97 1417.26 1091.54 C 1433.62 1061.24 1456.99 1052.35 1488.1 1043.11 C 1488.45 1074.77 1488.2 1107.56 1487.99 1139.21 C 1478.91 1127.51 1470.98 1114.78 1463.07 1102.27 C 1442.5 1119.59 1421.05 1136.2 1400.04 1153.07 C 1387.21 1137.94 1373.75 1118.99 1361.79 1102.9 C 1344.75 1116.24 1325.78 1133.92 1307.55 1148.52 C 1298.77 1135.09 1286.03 1116.67 1278.7 1102.89 C 1257.99 1117.73 1236.96 1134.59 1215.88 1149.89 C 1204.45 1134.55 1194.69 1117.84 1183.29 1102.91 C 1166.23 1118.01 1147.38 1133.65 1131.01 1149.2 C 1122.1 1135.7 1111.27 1115.17 1101.37 1102.87 C 1076.04 1121.22 1045 1149.13 1020.23 1164.83 C 1026.38 1173.53 1032.68 1185.48 1038 1194.94 C 1045.37 1189.75 1054.52 1181.94 1061.7 1176.16 C 1072.59 1166.95 1083.58 1157.87 1094.67 1148.91 L 1125.37 1195.75 L 1178.78 1149.44 C 1188.89 1165.4 1199.77 1180.65 1210.44 1196.25 C 1231.24 1181.35 1251.33 1164.55 1271.13 1148.3 C 1280.84 1164.38 1292.27 1181.28 1302.98 1196.76 C 1313.53 1185.54 1345.07 1159.06 1357.78 1148.02 C 1370.74 1165.19 1384.08 1182.07 1397.77 1198.66 C 1414.2 1183.22 1437.75 1164.71 1455.5 1149.51 L 1466.19 1164.38 C 1449.34 1180.79 1434.37 1197.94 1416.44 1215 L 990.561 1215.02 C 977.308 1256.11 963.505 1297.01 949.157 1337.73 C 942.397 1335.76 935.578 1333.92 928.716 1332.34 C 893.157 1324.15 857.863 1314.29 822.294 1306.24 L 845.284 1215.01 L 636.062 1215.03 C 619.93 1199.96 604.043 1184.62 588.407 1169.03 C 581.874 1162.55 569.882 1151.2 564.994 1143.99 C 564.779 1124.07 564.685 1104.14 564.71 1084.22 L 727.282 1084.45 L 727.452 1050.69 C 703.437 1050.7 678.749 1051 654.791 1050.32 L 654.714 1033.05 L 595.959 1033.33 C 590.602 1033.35 567.344 1034.69 564.837 1031.39 C 564.74 1027.46 564.166 1027.8 565.745 1024.77 C 572.286 1021.35 612.092 1022.96 622.755 1022.96 L 727.686 1022.77 C 727.484 1011.21 727.795 998.817 727.91 987.191 C 703.736 987.525 679.139 987.348 654.931 987.379 L 654.976 973.83 C 625.524 972.649 595.987 974.197 566.572 972.901 C 566.027 972.387 565.483 971.874 564.938 971.361 C 564.154 968.021 564.148 968.266 565.428 965.079 C 566.181 964.523 566.935 963.968 567.688 963.412 C 592.68 963.02 631.7 963.195 655 963.11 L 654.856 949.256 C 679.097 949.351 703.339 949.324 727.58 949.175 C 727.126 938.402 727.488 925.038 727.512 914.066 L 609.858 913.445 C 597.244 913.335 583.391 913.665 570.759 913.351 C 567.771 913.277 565.753 911.197 564.102 909.068 C 563.812 905.596 563.387 907.077 564.915 904.371 C 571.689 901.569 642.026 902.955 655.097 902.926 L 655.091 888.177 L 727.262 888.156 L 727.228 853.011 L 610.477 852.923 C 597.104 852.866 582.814 852.77 569.331 853.154 C 566.821 853.225 566.023 852.162 564.464 850.818 C 563.761 847.251 563.973 846.875 564.328 843.342 C 568.169 839.896 645.326 841.506 655.113 841.498 L 655.092 825.173 L 727.083 824.972 L 727.237 789.976 C 705.51 789.84 683.784 789.848 662.058 790.001 C 676.182 743.212 695.292 735.361 738.872 720.22 C 686.316 703.828 679.527 694.598 660.005 644.661 C 683.514 644.406 707.554 644.692 731.103 644.733 L 731.024 583.006 L 667.987 583.03 L 667.934 528.405 C 688.873 528.618 709.814 528.676 730.753 528.578 C 730.894 496.784 730.827 464.991 730.552 433.198 z" fill="rgb(237,57,129)" transform="translate(0,0)"></path>
<path d="M 1207.26 872.123 C 1257.49 866.6 1302.7 902.822 1308.26 953.05 C 1313.82 1003.28 1277.64 1048.51 1227.41 1054.12 C 1177.13 1059.72 1131.84 1023.49 1126.27 973.203 C 1120.7 922.92 1156.97 877.652 1207.26 872.123 z" fill="rgb(0,0,0)" transform="translate(0,0)"></path>
<path d="M 1216.48 898.764 C 1218.15 900.564 1218.08 901.731 1218.65 904.159 C 1226.98 939.245 1249.26 957.244 1283.28 964.119 C 1245.29 974.225 1227.64 988.888 1217.76 1028.24 L 1216.96 1028.32 C 1215.45 1025.1 1215.04 1021.45 1213.94 1018.01 C 1203.65 985.964 1183.48 972.495 1151.9 964.886 C 1190.46 953.909 1207.94 938.564 1216.48 898.764 z" fill="rgb(255,255,255)" transform="translate(0,0)"></path>
<path d="M 1210.98 875.39 C 1211.32 875.363 1215.38 874.876 1215.49 875.757 C 1216.4 883.253 1213.73 893.264 1212.19 900.492 L 1211.25 905.01 C 1202.67 947.317 1172.14 958.874 1133.79 963.162 C 1130.5 962.795 1129.3 963.296 1129.54 959.575 C 1132.03 921.348 1159.67 884.95 1198.01 877.07 C 1202.18 876.213 1206.74 875.899 1210.98 875.39 z" fill="rgb(237,57,129)" transform="translate(0,0)"></path>
<path d="M 1219.05 874.961 C 1224.32 875.391 1228.83 875.841 1234.01 876.808 C 1248.41 879.488 1261.83 885.947 1272.9 895.524 C 1293.37 913.539 1302.67 934.547 1304.33 961.35 C 1247.06 962.14 1219.41 931.113 1219.05 874.961 z" fill="rgb(237,57,129)" transform="translate(0,0)"></path>
<path d="M 1297.69 966.425 C 1298.13 966.344 1303.54 965.549 1303.6 966.635 C 1304.07 982.046 1297.33 1001.13 1288.3 1013.61 C 1271.75 1036.47 1253.83 1046.04 1226.69 1050.93 C 1226 1050.94 1219.28 1051.58 1219.14 1050.38 C 1217.18 1033.5 1223.69 1014.47 1232.67 1000.38 C 1248.8 975.04 1269.66 968.824 1297.69 966.425 z" fill="rgb(237,57,129)" transform="translate(0,0)"></path>
<path d="M 1129.74 965.653 C 1155.98 969.631 1183.24 971.992 1199.49 996.703 C 1211.35 1014.75 1215.23 1029.93 1215.14 1051.29 C 1171.2 1049.13 1137.02 1019.62 1131.11 975.495 L 1129.74 965.653 z" fill="rgb(237,57,129)" transform="translate(0,0)"></path>
<path d="M 806.451 918.715 C 809.311 922.051 812.059 932.348 814.671 937.346 C 824.774 956.681 840.416 964.167 859.811 970.453 C 826.155 983.125 818.877 988.807 807.366 1023.28 C 804.381 1020.24 801.87 1009.5 799.174 1004.12 C 788.747 983.334 773.476 977.926 753.296 971.081 C 760.189 969.536 766.867 967.152 773.179 963.981 C 793.382 953.619 799.893 938.827 806.451 918.715 z" fill="rgb(0,0,0)" transform="translate(0,0)"></path>
<path d="M 682.161 1109.87 L 698.443 1109.61 C 697.375 1115.91 696.179 1122.21 695.122 1128.51 L 694.152 1134.01 C 693.235 1139.89 692.06 1145.72 691.01 1151.57 C 702.987 1137.72 712.346 1129.9 726.127 1117.61 C 726.308 1126.04 726.353 1134.47 726.264 1142.9 C 714.631 1146.05 702.737 1149.49 690.982 1151.89 C 703.159 1155.97 713.538 1159.49 726.001 1162.67 C 726.129 1171.3 726.166 1179.94 726.114 1188.57 C 713.818 1178.19 703.601 1166.59 689.923 1155.08 C 690.959 1160.15 692.059 1164.95 693.235 1169.98 L 694.676 1176.01 C 696.134 1182.28 697.307 1188.18 698.439 1194.52 C 693.015 1195.14 686.56 1194.87 681.039 1194.77 L 683.862 1180.99 L 686.869 1165.99 C 687.591 1162.46 688.243 1158.92 688.826 1155.37 C 677.629 1165.26 664.523 1178.18 653.43 1188.7 C 653.302 1180.16 653.22 1171.63 653.183 1163.1 C 663.441 1160.74 671.495 1159.16 681.15 1154.29 L 684.351 1152.68 C 674.707 1148.49 664.575 1145.71 654.353 1143.34 C 654.157 1135.02 654.09 1126.7 654.154 1118.38 C 667.388 1129.3 676.082 1139.3 688.355 1149.76 C 686.213 1136.15 683.746 1123.62 682.161 1109.87 z" fill="rgb(0,0,0)" transform="translate(0,0)"></path>
<path d="M 925.012 1129.02 L 978.06 1129.2 C 978.11 1136.42 978.115 1143.65 978.074 1150.87 C 961.245 1150.97 942.361 1151.34 925.639 1150.91 L 925.4 1150.35 C 924.836 1143.76 925.068 1135.74 925.012 1129.02 z" fill="rgb(0,0,0)" transform="translate(0,0)"></path>
<path d="M 850.565 1128.44 C 867.565 1128.87 884.844 1128.7 901.877 1128.97 C 901.828 1136.26 901.854 1143.56 901.954 1150.85 L 850.483 1150.86 L 850.565 1128.44 z" fill="rgb(0,0,0)" transform="translate(0,0)"></path>
<path d="M 925.4 1150.35 L 925.639 1150.91 C 923.746 1163.14 926.824 1190.44 924.779 1202.28 C 917.854 1202.32 910.93 1202.3 904.005 1202.22 C 904.046 1185.52 903.948 1168.82 903.712 1152.12 C 910.547 1152.26 917.385 1152.19 924.216 1151.92 L 925.4 1150.35 z" fill="rgb(0,0,0)" transform="translate(0,0)"></path>
<path d="M 925.4 1150.35 L 925.639 1150.91 C 923.746 1163.14 926.824 1190.44 924.779 1202.28 C 923.504 1190.99 924.635 1164.9 924.216 1151.92 L 925.4 1150.35 z" fill="rgb(169,43,95)" transform="translate(0,0)"></path>
<path d="M 904.072 1078.22 C 910.778 1078.12 917.484 1078.06 924.191 1078.06 C 924.168 1084.11 925.242 1125.95 922.681 1127.6 C 916.194 1127.47 909.914 1127.54 903.445 1127.54 C 904.05 1111.1 903.44 1094.53 904.072 1078.22 z" fill="rgb(0,0,0)" transform="translate(0,0)"></path>
<path d="M 1049.77 973.456 C 1053.17 974.707 1052.04 973.624 1053.65 976.388 C 1055.12 990.884 1037.21 1007.28 1025.36 1012.87 C 1011.14 1019.52 994.843 1020.16 980.151 1014.64 C 965.101 1008.93 955.769 998.51 949.34 984.192 C 947.988 980.049 947.473 979.093 949.533 975.48 L 951.477 975.304 C 954.846 978.382 954.568 980.652 956.389 984.758 C 966.997 1008.68 998.782 1018.5 1022.01 1007.93 C 1037.85 1000.73 1043.92 988.607 1049.77 973.456 z" fill="rgb(0,0,0)" transform="translate(0,0)"></path>
<path d="M 800.828 433.5 L 1294.5 433.201 L 1294.61 615.787 L 1294.69 668.216 C 1294.7 677.501 1295.03 693.788 1293.49 702.592 C 1292.17 710.434 1288.37 717.647 1282.66 723.175 C 1266.53 738.922 1231.4 734.731 1208.5 734.649 C 1182.08 734.631 1155.66 734.769 1129.25 735.065 C 1108.75 705.426 1072.38 690.087 1039.2 710.03 C 1027.58 717.015 1021.11 724.636 1012.52 735.003 C 997.166 734.971 981.814 735.057 966.463 735.26 C 948.637 713.848 929.634 697.584 899.322 701.655 C 877.954 704.524 862.153 718.07 849.503 734.818 C 823.563 733.013 787.048 741.08 778.61 702.68 C 776.752 694.228 777.799 680.087 777.852 671.025 L 778.061 619.853 L 778.107 433.614 L 800.828 433.5 z" fill="rgb(237,57,129)" transform="translate(0,0)"></path>
<path d="M 1172.11 480.216 C 1193.5 480.021 1214.89 480.031 1236.27 480.247 L 1236.26 661.725 C 1214.87 661.78 1193.48 661.726 1172.09 661.563 C 1172.4 601.114 1172.41 540.665 1172.11 480.216 z" fill="rgb(0,0,0)" transform="translate(0,0)"></path>
<path d="M 1176.12 484.132 L 1232.05 484.049 L 1231.83 657.705 L 1176.09 657.87 L 1176.12 484.132 z" fill="rgb(254,186,44)" transform="translate(0,0)"></path>
<path d="M 1102.72 480.174 C 1121.91 479.811 1141.85 480.086 1161.1 480.087 C 1161.03 501.274 1163.08 656.587 1159.86 661.261 C 1142.38 662.195 1119.93 661.645 1102.25 661.296 L 1102.72 480.174 z" fill="rgb(0,0,0)" transform="translate(0,0)"></path>
<path d="M 1106.09 484.228 C 1122.87 483.96 1140.24 484.184 1157.06 484.177 C 1156.79 541.837 1157.78 599.985 1157.05 657.582 L 1106.17 657.734 L 1106.09 484.228 z" fill="rgb(254,186,44)" transform="translate(0,0)"></path>
<path d="M 1025.21 479.936 L 1083.03 479.859 L 1083.08 661.855 C 1063.87 661.934 1044.67 661.902 1025.46 661.759 C 1024.56 601.605 1025.73 540.319 1025.21 479.936 z" fill="rgb(0,0,0)" transform="translate(0,0)"></path>
<path d="M 1029.3 484.059 L 1079.07 484.129 C 1079.43 541.972 1079.46 599.816 1079.14 657.659 L 1029.25 657.648 L 1029.3 484.059 z" fill="rgb(254,186,44)" transform="translate(0,0)"></path>
<path d="M 908.553 629.42 C 916.614 628.613 936.187 629.498 940.017 637.686 C 951.932 663.162 911.652 652.732 899.668 655.187 C 887.759 657.626 878.108 661.753 867.458 667.377 C 864.913 669.126 856.335 675.481 854.055 675.909 C 842.966 677.988 833.487 663.232 841.737 654.807 C 858.526 637.661 885.55 631.247 908.553 629.42 z" fill="rgb(0,0,0)" transform="translate(0,0)"></path>
<path d="M 1105.72 1418.97 C 1120.07 1414.4 1141.3 1409.94 1156.28 1406.38 L 1245.98 1385.01 C 1259.18 1381.84 1273.59 1379.01 1286.41 1374.91 C 1291.2 1376.05 1294.86 1377.35 1299.47 1378.94 C 1287.39 1401.35 1285.19 1396.39 1271.67 1410.33 C 1251.33 1431.29 1287.66 1472.75 1314.76 1437.11 C 1315.42 1420.51 1324.64 1411.7 1334.37 1397.93 C 1374.97 1405.48 1326.41 1429.76 1323.75 1446.99 C 1320.92 1465.31 1331.23 1474.13 1347.87 1478.16 C 1372.81 1473.04 1365.02 1465.88 1371.31 1450.37 C 1375.05 1441.12 1386.93 1428.85 1392.4 1416.89 C 1397.21 1416.77 1400.19 1416.73 1404.96 1417.17 L 1405.35 1418.76 L 1409.05 1419.78 C 1412.5 1416.13 1413.06 1416.96 1417.99 1416.64 C 1490.19 1411.98 1554.62 1448.49 1555.85 1528.73 C 1555.9 1534.18 1555.86 1539.63 1555.73 1545.08 L 1384.4 1545.73 C 1373.39 1545.76 1320.52 1546.43 1313.75 1544.87 C 1313.35 1543.55 1312.97 1542.28 1312.52 1540.98 C 1311.25 1541.97 1308.09 1544.43 1306.75 1544.56 C 1287.76 1546.45 1258.06 1545.92 1239.54 1545.48 C 1241.65 1542.59 1244.65 1539.65 1243.53 1536.11 L 1241.37 1536.82 C 1238.07 1539.91 1237.8 1541.05 1235.74 1545.24 L 1072.99 1545.57 C 1073.12 1494.55 1079.73 1463.18 1105.72 1418.97 z" fill="rgb(6,76,239)" transform="translate(0,0)"></path>
<path d="M 1317.86 1537.35 C 1318.31 1538.32 1318.76 1539.3 1319.2 1540.27 C 1316.08 1541.82 1316 1542.1 1313.75 1544.87 C 1313.35 1543.55 1312.97 1542.28 1312.52 1540.98 C 1314.75 1539.85 1315.9 1538.88 1317.86 1537.35 z" fill="rgb(0,0,0)" transform="translate(0,0)"></path>
<path d="M 1405.35 1418.76 L 1409.05 1419.78 C 1405.67 1425.22 1402.98 1426.21 1405.35 1418.76 z" fill="rgb(0,0,0)" transform="translate(0,0)"></path>
<path d="M 1151.15 1446.1 C 1169.31 1445.09 1179.01 1449.69 1189.3 1464.66 C 1193.68 1459.15 1204.02 1450.33 1198.9 1459.72 C 1200.21 1457.32 1191.75 1467.15 1191.92 1466.93 C 1194.12 1474.85 1196.01 1480.5 1194.85 1489 C 1193.37 1499.22 1187.83 1508.4 1179.49 1514.49 C 1178.46 1515.22 1177.43 1515.96 1176.4 1516.7 L 1175.03 1517.35 C 1124.41 1541.6 1091.06 1460.94 1151.15 1446.1 z" fill="rgb(0,0,0)" transform="translate(0,0)"></path>
<path d="M 1155.3 1449.4 C 1174.4 1448.43 1190.64 1463.17 1191.53 1482.28 C 1192.42 1501.38 1177.61 1517.56 1158.5 1518.37 C 1139.51 1519.17 1123.44 1504.46 1122.56 1485.47 C 1121.68 1466.49 1136.32 1450.36 1155.3 1449.4 z" fill="rgb(255,255,255)" transform="translate(0,0)"></path>
<path d="M 1378.36 1467.56 L 1380.46 1470.44 C 1370.95 1486 1353.69 1518.38 1338.36 1526.89 C 1336.52 1527.9 1334.69 1528.94 1332.88 1530.01 C 1340.62 1519.47 1351.18 1513.56 1358.11 1501.76 C 1358.41 1501.25 1365.7 1489.28 1364.16 1491.06 C 1370.37 1483.9 1373.02 1474.46 1378.36 1467.56 z" fill="rgb(0,0,0)" transform="translate(0,0)"></path>
<path d="M 1275.39 1478.21 C 1286.88 1482.96 1277.09 1485.23 1274.15 1492.53 C 1270.76 1500.96 1264.34 1505.46 1260.75 1513.71 C 1260.06 1515.29 1256.83 1516.75 1256.25 1518.6 C 1253.88 1523.99 1251.07 1527.9 1248.41 1533.54 C 1238.42 1535.57 1254.15 1519.08 1255.37 1516.35 C 1261.6 1502.36 1277.74 1494.17 1275.39 1478.21 z" fill="rgb(0,0,0)" transform="translate(0,0)"></path>
<path d="M 1219.14 1451.03 C 1224.22 1450.82 1225.93 1450.69 1230.88 1451.38 L 1231.72 1451.78 C 1233.64 1452.67 1262.13 1464.62 1255.9 1466.9 C 1252.79 1468.03 1241.28 1456.33 1236.61 1456.59 C 1233.08 1456.11 1224.34 1453.53 1221.71 1452.65 C 1220.75 1452.76 1219.96 1452.89 1219.01 1452.84 L 1219.14 1451.03 z" fill="rgb(0,0,0)" transform="translate(0,0)"></path>
<path d="M 1219.14 1451.03 C 1224.22 1450.82 1225.93 1450.69 1230.88 1451.38 L 1226.53 1451.78 C 1224.69 1451.96 1223.51 1452.25 1221.71 1452.65 C 1220.75 1452.76 1219.96 1452.89 1219.01 1452.84 L 1219.14 1451.03 z" fill="rgb(5,28,90)" transform="translate(0,0)"></path>
<path d="M 1401.36 1433.68 C 1398.84 1439.26 1385.64 1462.91 1381.96 1467.35 C 1381.08 1466.63 1380.19 1465.92 1379.28 1465.23 C 1382.54 1459.48 1387.56 1453.08 1390.07 1447.54 C 1393.08 1440.91 1396.4 1438.35 1401.36 1433.68 z" fill="rgb(0,0,0)" transform="translate(0,0)"></path>
<path d="M 1257 1466.95 C 1261.34 1468.02 1269.8 1471.69 1270.84 1476.44 L 1271.18 1477.81 C 1266.32 1476.86 1259.56 1471.35 1257 1466.95 z" fill="rgb(0,0,0)" transform="translate(0,0)"></path>
<path d="M 1219.01 1452.84 C 1193.2 1460.83 1202.25 1450.98 1219.14 1451.03 L 1219.01 1452.84 z" fill="rgb(0,0,0)" transform="translate(0,0)"></path>
<path d="M 1322.77 1534.59 C 1326.96 1530.53 1333.85 1527.71 1339.23 1525.19 C 1333.05 1531.48 1330.87 1533.09 1323.68 1537.76 L 1322.77 1534.59 z" fill="rgb(0,0,0)" transform="translate(0,0)"></path>
<path d="M 1403.55 1424.71 C 1408.03 1427.98 1403.89 1431.42 1401.18 1435.76 C 1395.42 1433.56 1401.16 1427.54 1403.55 1424.71 z" fill="rgb(0,0,0)" transform="translate(0,0)"></path>
<path d="M 1379.28 1465.23 C 1380.19 1465.92 1381.08 1466.63 1381.96 1467.35 L 1380.46 1470.44 L 1378.36 1467.56 C 1379.04 1466.36 1378.95 1466.58 1379.28 1465.23 z" fill="rgb(42,88,216)" transform="translate(0,0)"></path>
<path d="M 770.295 1374.17 C 786.667 1379.34 805.781 1383.44 822.633 1387.53 L 901.149 1406.73 C 914.306 1409.92 939.539 1415.21 951.384 1419.89 C 975.973 1450.13 981.283 1507.12 982.41 1545.33 C 941.732 1545.15 901.054 1545.2 860.376 1545.47 C 852.59 1545.47 821.64 1547 816.888 1542.94 C 816.614 1543.75 816.34 1544.56 816.067 1545.37 C 793.213 1544.93 770.052 1545.46 747.05 1545.07 C 743.55 1542.06 738.766 1537.51 734.057 1537.15 C 734.784 1540.19 738.789 1542.71 741.576 1545.06 L 500.314 1545.13 C 501.011 1531.49 499.578 1518.15 502.32 1504.41 C 507.857 1476.68 525.017 1452.99 548.353 1437.42 C 573.526 1420.62 597.333 1417.22 627.003 1416.97 C 632.163 1416.93 642.399 1416.73 647.126 1417.68 C 648.062 1417.55 648.923 1417.45 649.848 1417.25 L 664.469 1417.11 C 670.98 1428.91 680.579 1439.93 687.94 1451.52 C 687.242 1465.38 692.388 1476.3 707.935 1477.26 C 714.817 1477.74 721.591 1475.36 726.662 1470.69 C 736.135 1461.96 736.656 1451.87 735.828 1440 C 725.308 1422.78 717.361 1429.38 706.229 1408.06 C 711.903 1402.66 714.903 1399.69 721.944 1395.82 C 728.291 1405.42 734.903 1414.84 741.773 1424.07 C 741.88 1439.03 749.711 1451.37 765.961 1450.34 C 773.738 1449.91 780.958 1446.16 785.785 1440.05 C 797.055 1426.05 792.498 1404.08 773.337 1400.83 C 769.235 1395.34 761.521 1385.63 758.242 1380.08 L 770.295 1374.17 z" fill="rgb(6,76,239)" transform="translate(0,0)"></path>
<path d="M 647.126 1417.68 C 648.062 1417.55 648.923 1417.45 649.848 1417.25 C 650.163 1419.78 662.228 1435.9 655.478 1433.29 C 653.843 1432.66 648.445 1420.55 647.126 1417.68 z" fill="rgb(0,0,0)" transform="translate(0,0)"></path>
<path d="M 809.759 1535.87 C 808.587 1533.95 802.385 1525.89 803.781 1523.68 C 806.044 1523.19 811.573 1534.37 812.558 1536.08 L 809.759 1535.87 z" fill="rgb(0,0,0)" transform="translate(0,0)"></path>
<path d="M 812.558 1536.08 C 814.833 1538.64 816.33 1539.81 816.888 1542.94 C 816.614 1543.75 816.34 1544.56 816.067 1545.37 C 814.745 1543.26 813.548 1541.12 812.059 1539.12 L 812.558 1536.08 z" fill="rgb(0,0,0)" transform="translate(0,0)"></path>
<path d="M 809.759 1535.87 L 812.558 1536.08 L 812.059 1539.12 C 811.237 1538 810.534 1537.03 809.759 1535.87 z" fill="rgb(5,28,90)" transform="translate(0,0)"></path>
<path d="M 890.687 1447.18 C 896.466 1446.76 902.722 1446.04 908.481 1447.25 C 927.856 1451.35 940.131 1470.8 936.51 1490.14 C 932.64 1510.8 911.06 1525.86 890.316 1520.12 L 888.589 1519.67 C 861.659 1510.51 855.557 1486.5 867.198 1462.28 L 857.176 1457.68 C 855.765 1457.03 852.405 1455.87 853.313 1453.65 C 856.338 1451.81 866.066 1458.75 868.544 1460.47 C 876.906 1452.41 879.032 1450.48 890.687 1447.18 z" fill="rgb(0,0,0)" transform="translate(0,0)"></path>
<path d="M 892.605 1450.11 C 904.721 1447.76 917.162 1452.13 925.154 1461.53 C 933.145 1470.94 935.445 1483.92 931.171 1495.5 C 926.898 1507.08 916.714 1515.45 904.529 1517.41 C 886.104 1520.37 868.712 1508 865.457 1489.63 C 862.201 1471.25 874.286 1453.66 892.605 1450.11 z" fill="rgb(255,255,255)" transform="translate(0,0)"></path>
<path d="M 694.373 1499.56 C 701.107 1502.03 703.987 1511.45 709.296 1515.64 C 713.932 1519.3 715.424 1519.96 717.996 1525.25 C 710.128 1523.71 710.615 1521.22 705.538 1515.42 C 701.888 1511.25 695.665 1507.4 694.738 1501.44 L 694.373 1499.56 z" fill="rgb(0,0,0)" transform="translate(0,0)"></path>
<path d="M 657.631 1435.52 C 662.185 1437.36 673.725 1460.43 675.896 1465.62 L 674.303 1465.27 C 669.741 1464.31 658.961 1440.56 657.631 1435.52 z" fill="rgb(0,0,0)" transform="translate(0,0)"></path>
<path d="M 783.558 1491.74 C 786.919 1493.7 800.973 1517.08 803.076 1521.43 C 797.279 1519 784.215 1498.55 783.558 1491.74 z" fill="rgb(0,0,0)" transform="translate(0,0)"></path>
<path d="M 817.198 1453.16 L 817.902 1455.1 C 816.271 1456.04 814.66 1457.02 813.07 1458.03 C 796.56 1470.62 798.701 1459.64 814.526 1454.5 C 815.676 1453.83 815.962 1453.67 817.198 1453.16 z" fill="rgb(0,0,0)" transform="translate(0,0)"></path>
<path d="M 817.198 1453.16 L 817.902 1455.1 C 816.271 1456.04 814.66 1457.02 813.07 1458.03 L 814.526 1454.5 C 815.676 1453.83 815.962 1453.67 817.198 1453.16 z" fill="rgb(5,28,90)" transform="translate(0,0)"></path>
<path d="M 684.292 1481.45 C 689.059 1484.16 693.756 1492.52 696.059 1497.42 C 689.2 1498.24 686.138 1486.78 684.292 1481.45 z" fill="rgb(0,0,0)" transform="translate(0,0)"></path>
<path d="M 717.947 1525.75 C 722.578 1526.67 730.421 1530.39 731.101 1535.41 L 731.359 1537.04 C 725.557 1535.45 721.156 1530.69 717.947 1525.75 z" fill="rgb(0,0,0)" transform="translate(0,0)"></path>
<path d="M 674.324 1466.41 C 680.776 1467.91 682.82 1474.5 685.425 1480.51 C 678.809 1478.87 676.424 1472.44 674.324 1466.41 z" fill="rgb(0,0,0)" transform="translate(0,0)"></path>
<path d="M 817.198 1453.16 C 825.605 1450.11 828.176 1450.12 836.943 1449.21 C 826.774 1454.32 828.228 1454.82 817.902 1455.1 L 817.198 1453.16 z" fill="rgb(0,0,0)" transform="translate(0,0)"></path>
<path d="M 787.367 1474.45 C 801.221 1460.82 806.57 1464.31 788.948 1476.13 L 787.367 1474.45 z" fill="rgb(0,0,0)" transform="translate(0,0)"></path>
<path d="M 833.89 1450.21 C 837.159 1449.9 848.469 1449.42 850.035 1453.09 L 850.548 1454.2 C 843.582 1454.92 839.663 1453.8 833.89 1450.21 z" fill="rgb(0,0,0)" transform="translate(0,0)"></path>
<path d="M 780.779 1479.49 L 781.502 1481.26 C 780.587 1486.08 782.934 1484.59 783.592 1489.47 C 783.894 1491.71 772.778 1486.04 780.779 1479.49 z" fill="rgb(0,0,0)" transform="translate(0,0)"></path>
<path d="M 787.367 1474.45 L 788.948 1476.13 C 786.492 1477.88 784.01 1479.59 781.502 1481.26 L 780.779 1479.49 C 783.763 1477.78 784.745 1476.73 787.367 1474.45 z" fill="rgb(5,28,90)" transform="translate(0,0)"></path>
<path d="M 499.948 1575.97 L 982.975 1575.97 C 983.23 1604.69 988.53 1633.94 954.116 1644 C 916.625 1645.5 869.578 1644.47 831.753 1644.52 C 827.768 1635.62 823.721 1624.22 820.255 1614.95 L 792.406 1614.92 C 789.758 1624.72 785.619 1634.86 781.464 1644.11 L 608.41 1644.2 C 583.454 1644.22 554.048 1645.12 529.256 1643.11 C 514.002 1641.88 500.135 1622.56 499.965 1607.91 C 499.849 1597.94 499.808 1586.64 499.948 1575.97 z" fill="rgb(254,186,44)" transform="translate(0,0)"></path>
<path d="M 1157.48 1576.5 L 1555.61 1576.07 L 1555.86 1599.67 C 1555.87 1612.4 1554.04 1623.93 1544.37 1633.19 C 1539.18 1638.09 1532.76 1641.47 1525.78 1642.97 C 1515.68 1645.19 1458.47 1644.25 1444.5 1644.21 L 1278.42 1644.39 C 1274.81 1635.4 1271.08 1624.45 1267.7 1615.23 C 1258.82 1614.96 1249.43 1615.03 1240.51 1614.95 C 1236.4 1624.29 1232.49 1634.76 1228.71 1644.3 C 1200.84 1644.16 1172.98 1644.17 1145.12 1644.32 C 1123.01 1644.35 1099.75 1648.57 1083.38 1632.28 C 1068.29 1617.26 1071.99 1596.01 1072.42 1576.77 C 1099.96 1576.06 1129.77 1576.56 1157.48 1576.5 z" fill="rgb(254,186,44)" transform="translate(0,0)"></path>
<path d="M 610.574 433.19 L 726.133 433.3 L 726.712 524.848 C 705.639 524.565 684.563 524.518 663.488 524.706 L 663.776 583.072 L 621.75 583.002 L 607.873 583.012 L 607.832 640.794 L 564.096 640.736 L 563.962 478.748 C 578.582 464.931 595.765 445.506 610.574 433.19 z" fill="rgb(6,76,239)" transform="translate(0,0)"></path>
<path d="M 899.317 705.173 C 924.741 703.01 948.588 713.92 961.891 736.144 C 927.323 739.43 913 768.781 908.623 799.618 C 916.297 804.525 929.025 810.609 937.366 814.861 C 931.009 819.787 916.444 827.269 908.542 832.265 C 913.16 862.049 927.612 891.345 960.276 895.986 L 953.377 903.435 C 901.813 953.121 844.953 903.603 833.531 846.381 C 823.045 793.852 838.844 718.336 899.317 705.173 z" fill="rgb(255,255,255)" transform="translate(0,0)"></path>
<path d="M 1062.02 705.21 C 1091.97 703.047 1107.14 713.836 1125.71 736.067 C 1090.44 739.008 1075.11 768.074 1071.55 800.036 C 1081.24 804.9 1090.87 809.891 1100.43 815.007 C 1091.5 820.906 1081.16 826.864 1071.9 832.821 C 1076.02 864.095 1090.72 890.019 1123.75 896.214 L 1116.56 903.753 C 1107.33 912.5 1097.75 918.91 1085.1 921.736 C 1069.24 925.301 1052.62 922.48 1038.82 913.882 C 972.58 872.301 978.903 723.141 1062.02 705.21 z" fill="rgb(255,255,255)" transform="translate(0,0)"></path>
<path d="M 1262.05 1303.21 C 1277.67 1301.46 1285.06 1319.41 1287.72 1331.67 C 1290.93 1346.54 1298.76 1358.9 1285.98 1370.79 C 1266.46 1376.73 1235.14 1383.05 1214.33 1387.93 L 1096.49 1416.31 C 1077.69 1415.35 1077.02 1409.22 1072.09 1392.66 C 1067.72 1377.99 1055.38 1354.88 1076.06 1348.33 C 1095.48 1342.18 1115.18 1338.52 1134.7 1333.87 L 1262.05 1303.21 z" fill="rgb(254,186,44)" transform="translate(0,0)"></path>
<path d="M 1398.63 1158.4 C 1415.83 1146.97 1445.19 1122.19 1461.96 1108.59 C 1469.96 1122.28 1477.24 1132.57 1486.6 1145.12 C 1481.01 1151.14 1475.37 1156.29 1469.38 1161.87 C 1464.12 1154.7 1461.12 1150.01 1456.66 1142.3 C 1443.22 1154.47 1429.55 1166.38 1415.66 1178.03 L 1398.25 1193.09 L 1358.24 1142.28 C 1340.32 1158.66 1322.02 1174.62 1303.37 1190.16 C 1292.37 1174.35 1281.71 1158.31 1271.4 1142.04 C 1259.25 1154.9 1226.07 1180.06 1211.33 1190.65 C 1200.27 1176.86 1189.75 1158.46 1179.19 1143.45 C 1163.02 1158.69 1143.69 1175.48 1126.76 1189.86 C 1118.32 1179.37 1102.38 1154.12 1095.52 1142.4 C 1082.72 1154.66 1053.65 1178.13 1039.22 1189.17 L 1026.08 1166.47 C 1050.89 1147.66 1075.37 1128.42 1099.5 1108.75 C 1105.92 1114.03 1124.09 1145.48 1129.55 1154.55 C 1144.43 1143.72 1167.6 1121.36 1182.85 1108.53 C 1193.16 1123.86 1203.97 1140.92 1215 1155.48 C 1236.34 1140.89 1256.69 1124.8 1277.18 1109.02 C 1286.69 1123.64 1297.73 1139.86 1306.21 1154.89 C 1325.47 1139.37 1342.62 1124.7 1361.28 1108.5 C 1373.52 1125.29 1386.32 1141.65 1398.63 1158.4 z" fill="rgb(254,186,44)" transform="translate(0,0)"></path>
<path d="M 790.804 1304.25 C 795.31 1304.7 799.682 1305.75 804.102 1306.7 C 830.924 1312.49 857.424 1319.57 884.115 1325.92 L 945.612 1340.66 C 951.84 1342.13 960.576 1344.36 966.521 1345.48 C 991.104 1350.11 995.117 1357.79 985.889 1381.09 C 979.945 1396.1 982.894 1410.08 964.285 1417.34 C 956.047 1417.16 901.979 1402.25 889.386 1399.29 C 853.908 1390.79 818.562 1381.59 782.984 1373.54 C 777.052 1371.32 766.562 1370.04 765.281 1362.75 C 762.886 1349.11 770.354 1336.09 773.542 1322.83 C 775.961 1312.77 780.301 1307.27 790.804 1304.25 z" fill="rgb(254,186,44)" transform="translate(0,0)"></path>
<path d="M 1064.07 1219.8 C 1108.18 1218.43 1159.64 1219.74 1204.43 1219.59 C 1212.63 1244.8 1221.01 1280.12 1228.35 1306.5 C 1220.62 1308.77 1212.59 1310.53 1204.73 1312.37 C 1170.34 1320.94 1135.88 1329.24 1101.36 1337.27 C 1090.44 1298.11 1074.95 1258.77 1064.07 1219.8 z" fill="rgb(237,57,129)" transform="translate(0,0)"></path>
<path d="M 1300.12 433.505 L 1440.24 433.329 C 1450.36 442.023 1462.56 454.414 1472.38 463.852 C 1458.06 465.392 1440.45 464.981 1425.75 464.997 L 1425.74 479.5 L 1425.81 524.284 L 1299.03 524.222 C 1299.02 513.36 1298.33 436.883 1300.12 433.505 z" fill="rgb(6,76,239)" transform="translate(0,0)"></path>
<path d="M 1299.04 527.944 L 1361.87 527.976 L 1361.73 585.767 C 1381.31 585.272 1404.41 585.898 1424.23 585.991 L 1424.3 641.172 L 1298.99 641.251 L 1299.04 527.944 z" fill="rgb(6,76,239)" transform="translate(0,0)"></path>
<path d="M 1239.68 1549.49 C 1313.3 1550.83 1390.27 1549.42 1464.19 1549.51 L 1523.83 1549.61 C 1531.56 1549.62 1548.11 1549.25 1554.89 1550.11 L 1556.55 1553.12 C 1554.51 1559.89 1545.53 1553.27 1544.39 1561.63 L 1548.82 1562.64 C 1552.17 1563.37 1554.09 1563.22 1556.28 1565.79 C 1556.34 1569.14 1556.63 1567.45 1554.52 1570.82 C 1548.24 1571.93 1516.61 1571.44 1508.08 1571.44 L 1402.5 1571.41 L 1072.7 1571.5 L 1072.87 1549.69 L 1239.68 1549.49 z" fill="rgb(255,255,255)" transform="translate(0,0)"></path>
<path d="M 1219.25 1557.13 C 1226.64 1556.65 1238.65 1556.43 1246.09 1557.49 C 1246.86 1557.6 1247.6 1562.28 1247.7 1562.8 C 1240.01 1563.18 1228.59 1563.4 1220.88 1562.53 C 1220.04 1562.43 1219.36 1557.69 1219.25 1557.13 z" fill="rgb(0,0,0)" transform="translate(0,0)"></path>
<path d="M 1328.03 1557.05 C 1336.59 1556.63 1346.27 1556.61 1354.75 1557.32 C 1355.65 1557.39 1356.06 1561.66 1356.13 1562.14 C 1350.55 1563.74 1335.78 1563.35 1329.72 1562.55 C 1329.02 1562.45 1328.15 1557.58 1328.03 1557.05 z" fill="rgb(0,0,0)" transform="translate(0,0)"></path>
<path d="M 1435.11 1556.98 C 1442.93 1556.92 1454.14 1556.43 1461.94 1557.51 C 1462.8 1557.63 1463 1562.33 1463.08 1562.94 C 1455.06 1562.85 1444.1 1563.41 1436.19 1562.43 C 1435.36 1562.32 1435.34 1559.31 1435.28 1558.7 L 1435.11 1556.98 z" fill="rgb(0,0,0)" transform="translate(0,0)"></path>
<path d="M 1363.99 1556.96 C 1371.65 1556.88 1382.59 1556.49 1390.32 1557.39 C 1391.07 1557.47 1391.29 1562.38 1391.34 1562.98 C 1385.92 1562.96 1380.12 1563.27 1374.75 1563.01 C 1365.71 1562.59 1364.8 1565.53 1363.99 1556.96 z" fill="rgb(0,0,0)" transform="translate(0,0)"></path>
<path d="M 1292.74 1556.92 C 1301.12 1556.94 1310.31 1556.5 1318.54 1557.39 C 1319.44 1557.49 1319.81 1562.51 1319.87 1562.99 C 1312.68 1562.98 1301.18 1563.51 1293.81 1562.51 C 1292.99 1562.4 1292.78 1557.41 1292.74 1556.92 z" fill="rgb(0,0,0)" transform="translate(0,0)"></path>
<path d="M 1183.92 1557.14 C 1191.52 1556.85 1202.63 1556.55 1210.3 1557.45 C 1210.94 1557.53 1212.06 1562.18 1212.26 1562.87 C 1204.63 1563.1 1193.25 1563.43 1185.51 1562.6 C 1184.89 1562.53 1184.06 1557.77 1183.92 1557.14 z" fill="rgb(0,0,0)" transform="translate(0,0)"></path>
<path d="M 1257.04 1557.02 C 1262.41 1557.01 1268.06 1556.77 1273.41 1556.99 C 1283.3 1557.39 1283.09 1554.68 1283.83 1563.02 C 1276.3 1563.03 1265.28 1563.65 1257.79 1562.5 C 1257.08 1562.39 1257.06 1557.41 1257.04 1557.02 z" fill="rgb(0,0,0)" transform="translate(0,0)"></path>
<path d="M 1147.57 1557.14 C 1155.9 1556.9 1166 1556.65 1174.34 1557.35 C 1175.17 1557.42 1176.25 1562.25 1176.38 1562.73 C 1168.66 1563.34 1158.05 1562.96 1150.2 1562.62 C 1149.06 1562.57 1147.81 1557.85 1147.57 1557.14 z" fill="rgb(0,0,0)" transform="translate(0,0)"></path>
<path d="M 1399.57 1556.99 C 1406.58 1556.91 1419.3 1556.28 1426.29 1557.62 C 1426.9 1557.74 1427.1 1562.36 1427.14 1562.79 C 1421.13 1562.77 1414.97 1563.02 1409 1562.83 C 1400.56 1562.56 1400.32 1564.81 1399.57 1556.99 z" fill="rgb(0,0,0)" transform="translate(0,0)"></path>
<path d="M 1075.98 1557 C 1083.68 1556.96 1094.55 1556.43 1102.19 1557.49 C 1103.01 1557.6 1103.24 1562.42 1103.29 1562.91 C 1095.11 1562.83 1085.8 1563.29 1077.67 1562.62 C 1076.42 1562.52 1076.08 1557.69 1075.98 1557 z" fill="rgb(0,0,0)" transform="translate(0,0)"></path>
<path d="M 1508.11 1556.98 C 1515.35 1556.94 1526.66 1556.46 1533.96 1557.52 C 1534.75 1557.64 1534.78 1562.39 1534.82 1562.95 C 1526.8 1562.93 1517 1563.45 1509.16 1562.43 C 1508.25 1562.31 1508.15 1557.44 1508.11 1556.98 z" fill="rgb(0,0,0)" transform="translate(0,0)"></path>
<path d="M 1112.15 1557.03 C 1119.57 1557.01 1130.48 1556.51 1137.94 1557.53 C 1138.79 1557.64 1138.76 1562.37 1138.81 1562.97 C 1132.1 1562.97 1119.9 1563.54 1113.1 1562.43 C 1112.4 1562.32 1112.35 1559.39 1112.33 1558.72 L 1112.15 1557.03 z" fill="rgb(0,0,0)" transform="translate(0,0)"></path>
<path d="M 1471.84 1557.14 C 1477.64 1556.86 1483.81 1556.71 1489.6 1556.93 C 1498.6 1557.27 1497.95 1555.02 1499.6 1562.58 C 1491.28 1563.05 1482 1562.95 1473.69 1562.56 C 1472.83 1562.52 1472.27 1559.11 1472.21 1558.79 L 1471.84 1557.14 z" fill="rgb(0,0,0)" transform="translate(0,0)"></path>
<path d="M 500.345 1549.43 L 866.734 1549.6 C 878.706 1549.6 976.682 1548.22 982.415 1550.31 C 985.574 1560.11 971.768 1554.96 966.734 1559.4 L 967.333 1560.98 C 971.986 1564.27 975.413 1561.29 982.12 1563.76 C 983.796 1567.01 983.026 1567.12 982.545 1571.55 L 631.399 1571.34 L 540.991 1571.27 C 534.091 1571.27 506.469 1571.75 501.252 1570.75 C 499.827 1567.69 499.991 1567.88 500.505 1564.5 C 504.795 1559.93 520.562 1566.58 524.91 1560.1 L 524.385 1557.58 C 519.869 1556.22 508.119 1557.46 501.593 1556.45 C 499.664 1553.66 500.369 1553.6 500.345 1549.43 z" fill="rgb(255,255,255)" transform="translate(0,0)"></path>
<path d="M 930.024 1557.1 C 938.274 1556.73 949.361 1556.59 957.663 1557.34 C 958.343 1557.4 958.781 1562.26 958.873 1562.87 C 951.466 1563.18 939.323 1563.41 931.802 1562.53 C 931.019 1562.43 930.158 1557.7 930.024 1557.1 z" fill="rgb(0,0,0)" transform="translate(0,0)"></path>
<path d="M 714.147 1556.95 C 722.032 1556.9 733.215 1556.4 741.085 1557.48 C 741.951 1557.6 742.211 1562.43 742.265 1562.96 C 733.702 1562.93 723.39 1563.53 715.04 1562.45 C 714.196 1562.34 714.178 1557.35 714.147 1556.95 z" fill="rgb(0,0,0)" transform="translate(0,0)"></path>
<path d="M 894.782 1556.97 C 902.898 1556.96 913.231 1556.51 921.322 1557.4 C 922.148 1557.49 922.426 1562.41 922.49 1563.02 C 914.766 1563.03 903.558 1563.59 895.9 1562.52 C 895.078 1562.41 894.827 1557.43 894.782 1556.97 z" fill="rgb(0,0,0)" transform="translate(0,0)"></path>
<path d="M 532.999 1556.91 C 540.162 1556.89 552.793 1556.29 559.947 1557.57 C 560.674 1557.7 560.727 1562.29 560.775 1562.89 C 552.213 1562.81 542.429 1563.43 534.081 1562.45 C 533.164 1562.34 533.042 1557.33 532.999 1556.91 z" fill="rgb(0,0,0)" transform="translate(0,0)"></path>
<path d="M 786.217 1557.12 C 794.135 1556.8 804.402 1556.66 812.347 1557.32 C 813.119 1557.38 814.269 1562.22 814.49 1562.94 C 806.625 1563.16 795.6 1563.47 787.665 1562.7 C 787.019 1562.64 786.339 1557.74 786.217 1557.12 z" fill="rgb(0,0,0)" transform="translate(0,0)"></path>
<path d="M 859.132 1557.03 C 866.797 1557.03 877.518 1556.58 885.188 1557.5 C 886.076 1557.6 886.366 1562.48 886.425 1563.02 C 878.814 1563.02 867.512 1563.59 859.959 1562.5 C 859.18 1562.39 859.17 1557.56 859.132 1557.03 z" fill="rgb(0,0,0)" transform="translate(0,0)"></path>
<path d="M 641.87 1556.98 C 648.822 1556.95 661.208 1556.39 668.277 1557.61 C 668.918 1557.72 669.169 1562.55 669.203 1562.95 C 663.374 1562.95 657.426 1563.14 651.609 1562.99 C 642.351 1562.74 642.907 1564.84 641.87 1556.98 z" fill="rgb(0,0,0)" transform="translate(0,0)"></path>
<path d="M 822.025 1557.18 C 829.198 1556.78 840.906 1556.53 848.255 1557.47 C 848.979 1557.56 849.731 1562.34 849.832 1562.85 C 844.675 1563.05 829.124 1563.38 823.408 1562.63 C 822.98 1562.58 822.575 1561.07 822.486 1560.47 L 822.025 1557.18 z" fill="rgb(0,0,0)" transform="translate(0,0)"></path>
<path d="M 569.2 1557.19 C 576.559 1556.74 588.721 1556.52 596.214 1557.48 C 596.98 1557.57 597.606 1562.15 597.704 1562.69 C 592.557 1562.94 586.284 1563.14 581.152 1562.84 C 571.768 1562.3 570.872 1565.64 569.2 1557.19 z" fill="rgb(0,0,0)" transform="translate(0,0)"></path>
<path d="M 750.845 1556.99 C 758.728 1557.01 768.681 1556.56 776.504 1557.43 C 777.239 1557.51 777.649 1562.52 777.732 1563.07 C 770.248 1563.06 759.222 1563.66 751.763 1562.53 C 751.045 1562.42 750.876 1557.41 750.845 1556.99 z" fill="rgb(0,0,0)" transform="translate(0,0)"></path>
<path d="M 677.932 1557.11 C 685.567 1556.87 696.561 1556.62 704.306 1557.43 C 704.994 1557.5 705.831 1562.17 705.989 1562.84 C 698.01 1563.1 687.687 1563.34 679.667 1562.65 C 678.935 1562.58 678.092 1557.79 677.932 1557.11 z" fill="rgb(0,0,0)" transform="translate(0,0)"></path>
<path d="M 606.073 1557 C 611.802 1557 617.685 1556.81 623.399 1556.98 C 632.587 1557.26 632.151 1555.14 632.871 1562.92 C 624.502 1562.8 615.276 1563.32 607.122 1562.44 C 606.194 1562.34 606.114 1557.43 606.073 1557 z" fill="rgb(0,0,0)" transform="translate(0,0)"></path>
<path d="M 1365.5 528.349 L 1488.21 528.467 L 1488.19 640.819 L 1452.12 640.827 L 1428.32 640.906 L 1428.31 586.22 C 1434.86 586.299 1457.12 588.169 1461.16 583.902 C 1456.69 581.207 1375.59 581.978 1365.43 581.978 L 1365.5 528.349 z" fill="rgb(254,186,44)" transform="translate(0,0)"></path>
<path d="M 564.037 644.579 C 595.058 644.9 626.397 644.645 657.443 644.606 C 643.301 691.975 622.451 707.854 576.139 720.536 C 595.783 725.382 609.105 730.137 625.375 741.917 C 641.586 755.847 648.657 769.945 655.151 789.773 C 624.786 789.358 594.417 789.419 564.054 789.956 L 564.037 644.579 z" fill="rgb(237,57,129)" transform="translate(0,0)"></path>
<path d="M 611.707 587.033 L 726.9 587.034 L 726.813 640.395 C 688.374 640.153 649.933 640.117 611.493 640.289 L 611.707 587.033 z" fill="rgb(254,186,44)" transform="translate(0,0)"></path>
<path d="M 564.234 794.102 L 723.056 794.042 L 723.003 820.985 L 706.5 821.008 L 651.602 821.086 C 651.361 826.266 651.34 831.975 651.218 837.202 L 564.092 837.213 L 564.234 794.102 z" fill="rgb(254,186,44)" transform="translate(0,0)"></path>
<path d="M 564.635 917.168 L 723.584 918.168 L 723.603 945.141 L 710.129 945.124 L 651.044 945.136 L 651.04 959.138 L 564.633 959.24 L 564.635 917.168 z" fill="rgb(254,186,44)" transform="translate(0,0)"></path>
<path d="M 564.203 856.977 L 723.138 857.021 L 723.143 883.543 L 708.967 883.351 C 689.899 883.265 670.832 883.448 651.769 883.899 L 651.457 898.885 C 622.442 898.97 593.426 898.876 564.412 898.603 L 564.203 856.977 z" fill="rgb(254,186,44)" transform="translate(0,0)"></path>
<path d="M 564.996 977.211 C 593.399 977.926 622.717 977.589 651.143 977.452 L 651.2 991.397 C 674.826 992.035 700.114 991.675 723.772 991.431 L 723.635 1018.51 C 712.646 1019.5 684.786 1018.71 672.542 1018.74 L 564.911 1018.91 L 564.996 977.211 z" fill="rgb(254,186,44)" transform="translate(0,0)"></path>
<path d="M 564.778 1037.76 C 593.492 1037.83 622.207 1037.73 650.92 1037.47 L 651.016 1054.23 C 670.684 1055.75 702.783 1054.69 723.102 1054.63 L 723.135 1080.36 C 670.769 1079.68 617.096 1080.05 564.68 1080.26 L 564.778 1037.76 z" fill="rgb(254,186,44)" transform="translate(0,0)"></path>
<path d="M 1428.96 468.227 C 1443.27 468.764 1462.07 469.053 1476.14 468.006 C 1481.18 472.375 1483.54 474.512 1488.12 479.586 C 1488.41 494.29 1488.2 509.631 1488.23 524.405 C 1468.47 524.22 1448.71 524.177 1428.95 524.274 C 1428.98 505.711 1428.77 486.739 1428.96 468.227 z" fill="rgb(237,57,129)" transform="translate(0,0)"></path>
<path d="M 1313.11 1372.94 C 1342.1 1373.42 1331.55 1402.11 1318.42 1414.69 C 1310.33 1422.44 1310.43 1430.44 1298.02 1437.21 C 1274.5 1435.98 1276.01 1414.8 1289.23 1401.18 C 1298.49 1391.63 1298.77 1380.86 1313.11 1372.94 z" fill="rgb(255,255,255)" transform="translate(0,0)"></path>
<path d="M 737.008 1374.11 C 750.726 1373.92 752.019 1378.02 759.865 1388.59 C 769.622 1401.74 792.219 1424.83 767.495 1436.33 C 765.819 1436.47 760.687 1436.96 759.027 1435.9 C 747.506 1427.34 735.355 1409.95 727.723 1397.6 C 721.697 1387.85 727.835 1378.36 737.008 1374.11 z" fill="rgb(255,255,255)" transform="translate(0,0)"></path>
<path d="M 681.706 1400.14 C 697.893 1400.92 698.135 1405.16 707.447 1417.18 C 716.354 1428.67 735.908 1450.14 713.29 1461.08 C 711.563 1461.08 703.492 1461.28 702.56 1460.65 C 692.565 1453.98 674.232 1425.7 669.617 1415.87 C 672.203 1407.45 672.66 1403.15 681.706 1400.14 z" fill="rgb(255,255,255)" transform="translate(0,0)"></path>
<path d="M 1370.47 1399.09 C 1375.08 1399.23 1377.55 1399.53 1381.32 1402.43 C 1396.51 1414.19 1380.86 1430.11 1372.82 1440.92 C 1366.63 1449.23 1362.29 1457.13 1352.94 1462.11 C 1324.18 1459.35 1336.98 1435.95 1347.99 1422 C 1357.53 1409.93 1354.75 1404.96 1370.47 1399.09 z" fill="rgb(255,255,255)" transform="translate(0,0)"></path>
<path d="M 991.823 739.52 C 998.107 739.404 1003.96 739.329 1010.25 739.379 C 999.925 757.232 993.209 776.04 991.456 796.62 C 991.442 796.784 990.854 800.036 990.617 800.514 L 990.495 800.555 C 990.043 800.25 990.319 800.477 989.808 799.733 C 985.516 777.485 983 761.269 970.385 741.323 L 969.438 739.758 C 976.899 739.629 984.361 739.55 991.823 739.52 z" fill="rgb(237,57,129)" transform="translate(0,0)"></path>
<path d="M 723.818 1431.8 C 747.859 1448.33 719.652 1489.23 694.776 1466.39 L 693.48 1465.23 C 692.909 1464.03 689.803 1457.37 691.61 1456.31 C 693.089 1456.85 697.066 1463.51 700.487 1464.52 C 710.875 1467.57 721.658 1465.45 726.039 1454.51 C 729.883 1444.91 727.768 1441.4 724.205 1432.76 L 723.818 1431.8 z" fill="rgb(255,255,255)" transform="translate(0,0)"></path>
<path d="M 1332.52 1435.82 C 1334.84 1438.35 1330.15 1443.1 1331.14 1449 C 1333.09 1460.61 1339.75 1466.4 1351.52 1466.39 C 1359.51 1466.38 1363.73 1458.32 1365.39 1457.85 C 1366.42 1458.61 1364.96 1463.01 1364.75 1463.86 C 1345.51 1489.96 1312.62 1456.61 1332.52 1435.82 z" fill="rgb(255,255,255)" transform="translate(0,0)"></path>
<path d="M 749.889 1434.2 C 761.994 1447.05 782.812 1438.48 782.653 1421.49 C 782.605 1416.3 777.521 1406.13 777.596 1405.98 C 780.741 1404.62 785.665 1413.46 786.354 1415.91 C 788.111 1421.64 787.894 1428.76 785.375 1434.29 C 780.522 1444.93 765.7 1449.71 755.477 1444.05 C 752.087 1442.18 750.817 1439.65 748.513 1436.69 L 749.889 1434.2 z" fill="url(#Gradient1)" transform="translate(0,0)"></path>
<path d="M 1274.7 1411.33 L 1275.95 1414.55 C 1274.31 1421.81 1274.11 1427.18 1278.93 1433.53 C 1285.87 1442.77 1300.05 1443.6 1308.16 1435.5 C 1308.71 1434.95 1309.9 1433.54 1310.78 1433.82 C 1313.31 1439.9 1292.46 1452.64 1281.94 1445.25 C 1269.41 1436.47 1266.52 1423.79 1274.7 1411.33 z" fill="rgb(255,255,255)" transform="translate(0,0)"></path>
<path d="M 1274.7 1411.33 C 1280.51 1403.18 1278.61 1409.49 1275.95 1414.55 L 1274.7 1411.33 z" fill="rgb(228,228,230)" transform="translate(0,0)"></path>
<path d="M 748.513 1436.69 C 748.065 1435.77 745.762 1431.97 746.632 1430.81 C 748.158 1430.96 749.17 1433.08 749.889 1434.2 L 748.513 1436.69 z" fill="rgb(229,192,213)" transform="translate(0,0)"></path>
<metadata><recraft-signature>{"signed_by": "recraft", "signature_b64": "zVeTeOECoVtZ6GumCnBd9Sz65p66eAIcOrvXAWDvkWCM/VM5Dr8+AMRGEITZwlrzlBU0PmxtaIPtfGfM7rCjBg==", "signing_algo": "Ed25519", "generation_timestamp": 1776943517, "identifier": "7dc87750-c8ab-416b-aa89-2b748afcd72c"}</recraft-signature></metadata></svg>