<svg xmlns="http://www.w3.org/2000/svg" height="1024" preserveAspectRatio="none" style="display: block;" version="1.1" viewBox="0 0 2048 2048" width="1024">
<defs>
	<linearGradient gradientUnits="userSpaceOnUse" id="Gradient1" x1="775.337" x2="652.652" y1="834.866" y2="987.92">
		<stop class="stop0" offset="0" stop-color="rgb(214,171,235)" stop-opacity="1"></stop>
		<stop class="stop1" offset="1" stop-color="rgb(238,214,251)" stop-opacity="1"></stop>
	</linearGradient>
	<linearGradient gradientUnits="userSpaceOnUse" id="Gradient2" x1="1301.21" x2="1340.46" y1="768.587" y2="819.692">
		<stop class="stop0" offset="0" stop-color="rgb(12,128,184)" stop-opacity="1"></stop>
		<stop class="stop1" offset="1" stop-color="rgb(3,151,206)" stop-opacity="1"></stop>
	</linearGradient>
</defs>
<path d="M 0 0 L 365.284 0 L 1681.8 0 L 2048 0 L 2048 364.129 L 2048 1684.51 L 2048 2048 L 1682.79 2048 L 364.187 2048 L 0 2048 L 0 1685.68 L 0 359.416 L 0 0 z" fill="rgb(10,62,176)" transform="translate(0,0)"></path>
<path d="M 1523.2 227.893 C 1567.81 266.41 1616.08 308.533 1662.04 345.043 C 1654.58 354.07 1646.4 363.649 1639.32 372.856 C 1652.28 383.102 1665.74 394.074 1678.89 403.983 C 1668.87 415.93 1655.49 432.174 1646.22 444.747 C 1659.19 455.553 1672.02 467.258 1684.65 478.525 C 1668.91 498.96 1649.56 517.974 1634.3 538.769 C 1649.22 554.126 1664.29 566.323 1679.44 580.831 C 1665.53 597.588 1649.78 617.941 1635.5 633.707 C 1645.32 642.964 1656.96 653.408 1666.39 662.897 C 1650.64 683.215 1632.59 703.321 1617.45 723.561 C 1630.56 735.609 1646.4 746.784 1658.35 757.965 C 1643.28 774.563 1628.72 791.617 1614.69 809.102 C 1626.4 820.893 1636.87 827.886 1649.06 838.206 C 1619.76 872.46 1591.73 907.271 1562.85 941.645 C 1518.68 993.207 1475.05 1045.23 1431.98 1097.72 C 1442.93 1106.8 1454.24 1115.67 1465.08 1124.7 C 1452.82 1139.66 1439.08 1154.32 1427.25 1169.06 C 1437.79 1177.66 1454.2 1190.04 1463.54 1198.78 L 1421.13 1248.74 C 1432.66 1259.41 1442.99 1269.01 1455.5 1278.62 C 1438.6 1299.56 1420.14 1320.55 1403.76 1341.07 L 1435.52 1367.79 C 1419.81 1387.42 1402.98 1406.44 1387.01 1425.89 C 1334.95 1489.29 1280.61 1551.64 1229.38 1615.63 C 1218.21 1606.84 1207.04 1596.56 1196.08 1587.29 C 1185.15 1601.63 1173.44 1617.97 1162.44 1631.86 C 1144.09 1615.91 1124.83 1601.2 1106.52 1585.34 C 1079.2 1561.67 1051.46 1538.65 1024.21 1514.91 C 999.894 1546.09 964.904 1585.1 938.441 1615.92 C 890.739 1672.09 842.383 1727.7 793.385 1782.74 C 770.087 1808.27 739.928 1838.71 718.212 1864.12 C 704.655 1852.69 689.533 1839.38 675.524 1828.81 C 653.798 1851.2 632.988 1876.78 612.043 1900.19 C 599.366 1890.09 583.626 1878.05 572.035 1867.08 C 593.512 1842.64 613.418 1816.81 635.05 1791.97 C 625.004 1783.63 611.383 1771.53 601.236 1763.91 C 582.052 1783.2 563.259 1803.83 544.681 1823.79 C 531.107 1811.96 515.809 1798.7 501.553 1787.72 C 476.285 1818.13 450.755 1848.32 424.965 1878.29 C 413.818 1869.68 402.787 1860.93 391.875 1852.04 C 370.095 1874.18 348.517 1896.52 327.144 1919.06 L 287.079 1885.27 C 268.207 1908.33 248.463 1930.66 229.671 1953.68 C 216.653 1942.91 203.85 1931.88 191.269 1920.59 C 207.407 1899.48 226.757 1879.44 242.554 1858.34 C 233.632 1851.62 225.432 1845.44 216.896 1838.2 L 227.576 1825.41 C 254.404 1793.71 282.332 1762.86 308.34 1730.28 C 297.492 1719.93 283.77 1708.54 272.322 1698.55 C 300.401 1663.08 330.044 1629.39 357.637 1593.69 C 341.641 1579.87 324.649 1566.56 308.416 1552.69 C 287.403 1576.73 266.828 1600.59 244.887 1623.81 C 230.698 1612.48 218.366 1601.93 204.687 1589.9 C 219.796 1572.54 241.63 1548.84 254.631 1530.68 L 238.038 1514.82 L 254.288 1495.9 C 266.504 1481.42 277.88 1467.82 289.698 1452.95 C 277.263 1443.74 260.536 1428.05 248.857 1417.3 C 264.96 1398.92 282.765 1381.25 298.118 1362.16 L 285.422 1350.65 L 513.493 1073.79 C 493.359 1054.99 474.418 1040.21 453.085 1022.85 L 400.759 979.629 C 389.585 970.487 378.283 961.904 367.546 952.225 C 381.527 936.764 395.391 918.922 408.601 904.564 C 398.662 895.779 388.558 887.182 378.294 878.779 C 438.982 808.381 498.451 733.321 559.654 664.143 L 580.762 679.973 C 595.809 664.221 610.51 648.142 624.853 631.747 L 663.415 664.16 C 678.691 647.291 693.121 630.537 708.125 613.517 C 714.679 618.732 741.417 640.584 747.013 643.742 C 756.706 629.922 777.22 607.253 788.72 593.721 C 798.712 602.54 809.273 611.697 818.843 620.935 C 861.117 571.35 903.032 521.459 944.583 471.266 C 970.654 440.393 1002.78 404.774 1027.22 373.151 C 1034.44 378.998 1041.6 384.903 1048.72 390.867 C 1063.78 375.011 1076.62 357.831 1091.3 342.036 L 1118.78 365.138 C 1135.44 347.927 1149.3 330.519 1165.26 313.277 C 1174.02 320.226 1182.67 327.308 1191.21 334.522 C 1204.85 319.911 1217.21 305.321 1230.13 290.08 C 1239.04 297.477 1249.5 305.96 1257.72 313.994 C 1269.38 299.842 1281.26 285.87 1293.34 272.084 C 1303.94 280.207 1313.62 289.297 1323.89 297.8 C 1337.2 285.264 1350.8 270.211 1363.14 256.613 C 1374.19 267.131 1387.38 277.413 1399.2 287.316 C 1415.26 271.403 1424.85 257.312 1438.75 240.237 C 1452.25 250.886 1470.81 265.058 1483.34 276.514 C 1496.28 260.243 1510.71 244.159 1523.2 227.893 z" fill="rgb(0,0,0)" transform="translate(0,0)"></path>
<path d="M 513.493 1073.79 L 558.99 1110.41 C 569.965 1119.11 586.382 1131.7 596.139 1141.65 C 566.693 1176.07 528.975 1223.61 498.048 1255.81 C 508.294 1263.75 520.19 1274.46 529.717 1283.49 C 535.663 1289.19 543.13 1296.77 549.302 1301.96 L 800.553 1524.21 L 821.82 1542.13 C 822.762 1541.02 823.865 1540.01 824.909 1538.98 C 830.206 1539.24 841.436 1551.79 845.818 1556.03 C 870.328 1527.61 896.323 1500.12 921.004 1471.82 C 928.319 1463.43 935.993 1454.86 943.729 1446.89 C 955.898 1457.01 968.002 1467.22 980.04 1477.5 C 994.537 1490.36 1009.91 1501.85 1024.21 1514.91 C 999.894 1546.09 964.904 1585.1 938.441 1615.92 C 890.739 1672.09 842.383 1727.7 793.385 1782.74 C 770.087 1808.27 739.928 1838.71 718.212 1864.12 C 704.655 1852.69 689.533 1839.38 675.524 1828.81 C 653.798 1851.2 632.988 1876.78 612.043 1900.19 C 599.366 1890.09 583.626 1878.05 572.035 1867.08 C 593.512 1842.64 613.418 1816.81 635.05 1791.97 C 625.004 1783.63 611.383 1771.53 601.236 1763.91 C 582.052 1783.2 563.259 1803.83 544.681 1823.79 C 531.107 1811.96 515.809 1798.7 501.553 1787.72 C 476.285 1818.13 450.755 1848.32 424.965 1878.29 C 413.818 1869.68 402.787 1860.93 391.875 1852.04 C 370.095 1874.18 348.517 1896.52 327.144 1919.06 L 287.079 1885.27 C 268.207 1908.33 248.463 1930.66 229.671 1953.68 C 216.653 1942.91 203.85 1931.88 191.269 1920.59 C 207.407 1899.48 226.757 1879.44 242.554 1858.34 C 233.632 1851.62 225.432 1845.44 216.896 1838.2 L 227.576 1825.41 C 254.404 1793.71 282.332 1762.86 308.34 1730.28 C 297.492 1719.93 283.77 1708.54 272.322 1698.55 C 300.401 1663.08 330.044 1629.39 357.637 1593.69 C 341.641 1579.87 324.649 1566.56 308.416 1552.69 C 287.403 1576.73 266.828 1600.59 244.887 1623.81 C 230.698 1612.48 218.366 1601.93 204.687 1589.9 C 219.796 1572.54 241.63 1548.84 254.631 1530.68 L 238.038 1514.82 L 254.288 1495.9 C 266.504 1481.42 277.88 1467.82 289.698 1452.95 C 277.263 1443.74 260.536 1428.05 248.857 1417.3 C 264.96 1398.92 282.765 1381.25 298.118 1362.16 L 285.422 1350.65 L 513.493 1073.79 z" fill="rgb(254,230,37)" transform="translate(0,0)"></path>
<path d="M 513.493 1073.79 L 558.99 1110.41 L 330.324 1378.84 C 335.26 1383.58 340.162 1388.37 345.295 1392.89 C 331.325 1409.27 316.601 1426.65 302.156 1442.6 C 318.49 1458.39 338.94 1474.9 356.194 1490.46 C 371.599 1473.77 387.644 1454.17 402.586 1436.82 C 415.978 1421.26 434.503 1401.26 446.122 1384.91 C 458.798 1396.99 473.515 1409.45 487.124 1420.57 C 484.751 1423.13 482.478 1425.95 479.696 1427.94 C 458.944 1451.16 438.424 1474.58 418.136 1498.2 C 413.233 1503.32 408.361 1508.46 403.521 1513.64 C 408.435 1517.12 413.894 1520.81 418.667 1524.39 C 400.597 1543.32 383.754 1563.53 366.641 1583.32 C 363.84 1586.56 360.638 1590.81 357.637 1593.69 C 341.641 1579.87 324.649 1566.56 308.416 1552.69 C 287.403 1576.73 266.828 1600.59 244.887 1623.81 C 230.698 1612.48 218.366 1601.93 204.687 1589.9 C 219.796 1572.54 241.63 1548.84 254.631 1530.68 L 238.038 1514.82 L 254.288 1495.9 C 266.504 1481.42 277.88 1467.82 289.698 1452.95 C 277.263 1443.74 260.536 1428.05 248.857 1417.3 C 264.96 1398.92 282.765 1381.25 298.118 1362.16 L 285.422 1350.65 L 513.493 1073.79 z" fill="rgb(254,143,30)" transform="translate(0,0)"></path>
<path d="M 452.748 1405.53 C 459.346 1411.89 472.216 1421.85 479.696 1427.94 C 458.944 1451.16 438.424 1474.58 418.136 1498.2 C 413.233 1503.32 408.361 1508.46 403.521 1513.64 C 408.435 1517.12 413.894 1520.81 418.667 1524.39 C 400.597 1543.32 383.754 1563.53 366.641 1583.32 C 363.84 1586.56 360.638 1590.81 357.637 1593.69 C 341.641 1579.87 324.649 1566.56 308.416 1552.69 C 287.403 1576.73 266.828 1600.59 244.887 1623.81 C 230.698 1612.48 218.366 1601.93 204.687 1589.9 C 219.796 1572.54 241.63 1548.84 254.631 1530.68 L 238.038 1514.82 L 254.288 1495.9 C 264.424 1505.51 282.409 1521.34 293.326 1529.4 C 304.121 1517.95 315.662 1502.73 326.765 1490.46 C 335.192 1498.74 347.961 1508.39 357.394 1515.78 L 452.748 1405.53 z" fill="rgb(249,43,63)" transform="translate(0,0)"></path>
<path d="M 654.39 1645.18 C 664.285 1654.06 677.775 1664.57 688.295 1673.22 C 668.464 1695.05 650.557 1719.28 630.924 1740.55 L 618.98 1752.69 C 637.47 1770.32 658.638 1786.37 677.558 1803.74 C 691.897 1788.03 707.529 1769.78 722.362 1754.9 C 729.277 1761.69 737.442 1768.91 743.989 1775.56 C 749.446 1769.61 754.647 1763.89 760.432 1758.24 C 769.536 1765.45 786.246 1776.37 793.385 1782.74 C 770.087 1808.27 739.928 1838.71 718.212 1864.12 C 704.655 1852.69 689.533 1839.38 675.524 1828.81 C 653.798 1851.2 632.988 1876.78 612.043 1900.19 C 599.366 1890.09 583.626 1878.05 572.035 1867.08 C 593.512 1842.64 613.418 1816.81 635.05 1791.97 C 625.004 1783.63 611.383 1771.53 601.236 1763.91 C 582.052 1783.2 563.259 1803.83 544.681 1823.79 C 531.107 1811.96 515.809 1798.7 501.553 1787.72 C 476.285 1818.13 450.755 1848.32 424.965 1878.29 C 413.818 1869.68 402.787 1860.93 391.875 1852.04 C 370.095 1874.18 348.517 1896.52 327.144 1919.06 L 287.079 1885.27 C 268.207 1908.33 248.463 1930.66 229.671 1953.68 C 216.653 1942.91 203.85 1931.88 191.269 1920.59 C 207.407 1899.48 226.757 1879.44 242.554 1858.34 C 233.632 1851.62 225.432 1845.44 216.896 1838.2 L 227.576 1825.41 C 243.255 1839.71 265.9 1856.97 282.732 1870.93 C 297.548 1854.45 309.363 1839.05 325.26 1822.88 C 335.764 1832.54 347.687 1842.13 358.902 1850.93 C 386.249 1822.21 412.201 1790.52 439.424 1760.93 C 449.579 1770.61 466.061 1783.1 477.196 1791.79 C 488.234 1776.55 522.706 1740.87 537.204 1725.14 C 545.624 1733.6 554.312 1741.79 563.253 1749.69 C 590.235 1715.56 624.73 1677 654.39 1645.18 z" fill="rgb(249,43,63)" transform="translate(0,0)"></path>
<path d="M 403.521 1513.64 C 408.361 1508.46 413.233 1503.32 418.136 1498.2 C 436.761 1512.56 455.051 1527.35 472.99 1542.56 C 431.929 1590.8 386.6 1647.08 344.545 1693.37 C 357.749 1705.91 368.781 1714.6 383.351 1725.52 L 319.212 1796.81 C 331.403 1807.78 349.094 1820.69 362.455 1831.19 C 379.819 1812.54 396.591 1793.03 413.048 1773.57 C 421.888 1763.12 432.17 1752.31 440.572 1741.67 C 452.661 1750.97 464.54 1760.55 476.201 1770.38 C 495.811 1746.99 517.114 1723.27 537.097 1699.83 C 547.407 1709.03 557.905 1718.01 568.583 1726.78 C 594.027 1699.16 617.887 1669.54 642.765 1641.37 C 647.393 1636.13 651.821 1630.67 656.067 1625.12 C 665.233 1633.67 674.252 1642.37 683.12 1651.23 L 689.526 1643.76 C 694.19 1647.38 700.9 1652.3 705.06 1656.21 C 699.847 1661.38 693.342 1668.56 688.295 1673.22 C 677.775 1664.57 664.285 1654.06 654.39 1645.18 C 624.73 1677 590.235 1715.56 563.253 1749.69 C 554.312 1741.79 545.624 1733.6 537.204 1725.14 C 522.706 1740.87 488.234 1776.55 477.196 1791.79 C 466.061 1783.1 449.579 1770.61 439.424 1760.93 C 412.201 1790.52 386.249 1822.21 358.902 1850.93 C 347.687 1842.13 335.764 1832.54 325.26 1822.88 C 309.363 1839.05 297.548 1854.45 282.732 1870.93 C 265.9 1856.97 243.255 1839.71 227.576 1825.41 C 254.404 1793.71 282.332 1762.86 308.34 1730.28 C 297.492 1719.93 283.77 1708.54 272.322 1698.55 C 300.401 1663.08 330.044 1629.39 357.637 1593.69 C 360.638 1590.81 363.84 1586.56 366.641 1583.32 C 383.754 1563.53 400.597 1543.32 418.667 1524.39 C 413.894 1520.81 408.435 1517.12 403.521 1513.64 z" fill="rgb(254,143,30)" transform="translate(0,0)"></path>
<path d="M 980.04 1477.5 C 994.537 1490.36 1009.91 1501.85 1024.21 1514.91 C 999.894 1546.09 964.904 1585.1 938.441 1615.92 C 890.739 1672.09 842.383 1727.7 793.385 1782.74 C 786.246 1776.37 769.536 1765.45 760.432 1758.24 C 754.647 1763.89 749.446 1769.61 743.989 1775.56 C 737.442 1768.91 729.277 1761.69 722.362 1754.9 C 707.529 1769.78 691.897 1788.03 677.558 1803.74 C 658.638 1786.37 637.47 1770.32 618.98 1752.69 L 630.924 1740.55 C 642.507 1751.96 660.127 1767.67 673.077 1777.19 C 688.271 1761.6 703.355 1745.91 718.329 1730.11 C 726.282 1735.7 740.656 1747.86 748.069 1754.42 C 763.004 1740.29 778.7 1720.15 791.715 1703.9 C 805.766 1686.12 820.115 1668.59 834.754 1651.3 C 881.28 1595.88 937.239 1534.1 980.04 1477.5 z" fill="rgb(254,143,30)" transform="translate(0,0)"></path>
<path d="M 529.717 1283.49 C 535.663 1289.19 543.13 1296.77 549.302 1301.96 L 800.553 1524.21 L 821.82 1542.13 C 815.909 1550.81 802.748 1564.46 795.342 1572.39 C 779.649 1559.72 759.311 1542.31 744.716 1528.66 L 718.903 1560.93 C 704.806 1549.71 688.638 1535.16 674.574 1523.24 C 683.522 1514.23 692.533 1503.47 700.583 1493.66 C 692.81 1486.2 687.42 1481.49 679.09 1474.7 C 672.098 1482.9 664.712 1492.48 657.896 1500.95 C 643.234 1488.25 628.206 1475.97 612.831 1464.14 C 621.306 1455.41 628.834 1446.3 636.685 1437.02 C 625.818 1427.24 614.846 1417.59 603.771 1408.05 L 584.91 1431.64 C 569.11 1419.99 549.41 1403.77 534.383 1391.14 L 557.184 1365.87 C 539.242 1350.19 520.867 1335.01 502.079 1320.35 C 511.494 1308.22 520.708 1295.93 529.717 1283.49 z" fill="rgb(138,54,167)" transform="translate(0,0)"></path>
<path d="M 549.302 1301.96 L 800.553 1524.21 C 796.565 1527.01 790.31 1534.05 786.663 1537.9 C 763.284 1517.87 742.525 1497.85 719.741 1477.63 C 682.783 1444.96 645.378 1412.8 607.538 1381.16 C 584.086 1361.44 557.97 1338.7 533.15 1321.23 L 549.302 1301.96 z" fill="rgb(110,32,129)" transform="translate(0,0)"></path>
<path d="M 743.136 1685.56 C 746.882 1687.08 766.129 1705.61 769.967 1709.46 C 762.004 1718.17 753.697 1725.51 745.921 1734.12 C 737.31 1727.43 726.193 1718.21 718.545 1710.84 C 726.675 1702.35 734.873 1693.92 743.136 1685.56 z" fill="rgb(7,187,245)" transform="translate(0,0)"></path>
<path d="M 1129.25 380.641 C 1148.27 396.206 1168.42 414.726 1187.22 431.121 C 1181.14 440.987 1166.34 457.389 1158.35 468.51 C 1162.5 472.083 1165.94 474.916 1170.17 478.35 C 1178.7 484.868 1191.27 494.827 1199.18 501.618 C 1208.67 490.445 1218.37 479.787 1227.87 468.37 C 1324.13 553.804 1421.97 637.427 1521.35 719.195 C 1540.71 734.736 1561.34 749.868 1580.22 765.726 C 1582.75 767.928 1585.69 770.353 1588.1 772.624 C 1580.94 781.184 1572.12 791.225 1565.7 800.148 C 1574.99 809.056 1584.1 816.769 1593.89 825.104 C 1579.61 842.302 1565.99 859.176 1551.34 876.125 C 1518.56 915.944 1484.39 955.394 1451.24 995.074 C 1427.39 1023.61 1398.15 1060.46 1372.69 1087.01 C 1366.04 1081.67 1360.71 1076.66 1355.27 1070.02 C 1340.65 1085.33 1319.6 1107.32 1303.95 1121.1 C 1298.54 1116.39 1293.09 1111.85 1288.18 1106.62 C 1273.13 1120.99 1255.71 1144.47 1239.69 1160.99 C 1222.77 1147.05 1195.91 1122.02 1179.74 1110.4 C 1174.2 1106 1168.7 1101.57 1163.22 1097.11 C 1152.11 1088.58 1141.04 1079.69 1130.04 1071 L 1225.66 963.87 C 1220.64 959.219 1214.45 954.172 1209.19 949.665 C 1217.26 939.32 1228.91 926.274 1237.83 916.574 C 1225.87 909.52 1196.24 885.179 1184.37 875.865 C 1146.28 845.879 1108.42 815.613 1070.77 785.072 C 1060.73 777.585 1050.84 769.893 1041.12 762.003 C 1029.07 775.836 1017.48 790.037 1005.07 803.515 C 999.836 799.123 993.304 793.31 987.951 789.305 C 978.574 803.058 967.248 816.143 956.582 828.991 C 942.08 846.705 927.273 864.169 912.17 881.374 C 901.203 871.573 886.752 859.804 876.669 849.92 C 865.054 838.74 850.517 826.378 838.411 815.524 C 829.989 808.671 821.646 801.722 813.383 794.678 L 840.715 760.649 C 835.197 755.266 828.808 749.641 823.086 744.38 L 850.169 712.925 C 841.199 704.522 832.151 697.173 822.682 689.363 C 832.856 675.341 848.279 658.2 859.692 644.615 L 924.487 567.189 L 1019.89 453.097 C 1033.28 437.174 1046.94 419.919 1060.76 404.509 C 1070.59 412.155 1078.29 421.032 1089.12 428.74 C 1102.79 413.932 1116.16 393.706 1129.25 380.641 z" fill="rgb(0,0,0)" transform="translate(0,0)"></path>
<path d="M 1129.25 380.641 C 1148.27 396.206 1168.42 414.726 1187.22 431.121 C 1181.14 440.987 1166.34 457.389 1158.35 468.51 C 1162.5 472.083 1165.94 474.916 1170.17 478.35 C 1178.7 484.868 1191.27 494.827 1199.18 501.618 C 1222.55 520.55 1245.76 539.678 1268.81 559.001 L 1234.52 600.091 C 1244.78 610.609 1256.26 620.321 1267.49 629.836 C 1247.79 653.791 1227.82 677.51 1207.56 700.986 C 1196.79 713.626 1184.97 728.338 1174.07 740.484 C 1164.59 732.4 1153.46 723.442 1144.44 715.142 C 1133.29 728.176 1120.76 742.276 1110.57 755.892 L 1101.42 748.058 C 1092.6 759.024 1080.17 774.622 1070.77 785.072 C 1060.73 777.585 1050.84 769.893 1041.12 762.003 C 1029.07 775.836 1017.48 790.037 1005.07 803.515 C 999.836 799.123 993.304 793.31 987.951 789.305 C 978.574 803.058 967.248 816.143 956.582 828.991 C 942.08 846.705 927.273 864.169 912.17 881.374 C 901.203 871.573 886.752 859.804 876.669 849.92 C 865.054 838.74 850.517 826.378 838.411 815.524 C 829.989 808.671 821.646 801.722 813.383 794.678 L 840.715 760.649 C 835.197 755.266 828.808 749.641 823.086 744.38 L 850.169 712.925 C 841.199 704.522 832.151 697.173 822.682 689.363 C 832.856 675.341 848.279 658.2 859.692 644.615 L 924.487 567.189 L 1019.89 453.097 C 1033.28 437.174 1046.94 419.919 1060.76 404.509 C 1070.59 412.155 1078.29 421.032 1089.12 428.74 C 1102.79 413.932 1116.16 393.706 1129.25 380.641 z" fill="rgb(0,0,0)" transform="translate(0,0)"></path>
<path d="M 1129.25 380.641 C 1148.27 396.206 1168.42 414.726 1187.22 431.121 C 1181.14 440.987 1166.34 457.389 1158.35 468.51 C 1151.66 462.631 1144.55 456.128 1137.75 450.477 C 1126.02 462.529 1116.05 474.709 1104.93 487.203 C 1095.87 480.066 1087.06 471.463 1078.86 463.32 C 1068.17 478.978 1049.7 500.306 1037 515.554 C 1011.08 546.931 984.855 578.056 958.332 608.925 C 942.171 627.624 913.91 658.915 899.815 678.156 C 910.747 688.097 921.481 695.936 932.567 705.258 C 919.27 722.056 904.073 737.015 890.975 753.396 C 883.263 763.432 874.701 773.562 866.49 783.216 C 856.967 793.842 847.606 804.612 838.411 815.524 C 829.989 808.671 821.646 801.722 813.383 794.678 L 840.715 760.649 C 835.197 755.266 828.808 749.641 823.086 744.38 L 850.169 712.925 C 841.199 704.522 832.151 697.173 822.682 689.363 C 832.856 675.341 848.279 658.2 859.692 644.615 L 924.487 567.189 L 1019.89 453.097 C 1033.28 437.174 1046.94 419.919 1060.76 404.509 C 1070.59 412.155 1078.29 421.032 1089.12 428.74 C 1102.79 413.932 1116.16 393.706 1129.25 380.641 z" fill="rgb(241,241,241)" transform="translate(0,0)"></path>
<path d="M 980.499 649.169 C 990.988 659.325 1009.27 673.732 1020.85 683.376 C 1047.56 705.113 1074.42 726.673 1101.42 748.058 C 1092.6 759.024 1080.17 774.622 1070.77 785.072 C 1060.73 777.585 1050.84 769.893 1041.12 762.003 C 1029.07 775.836 1017.48 790.037 1005.07 803.515 C 999.836 799.123 993.304 793.31 987.951 789.305 C 978.574 803.058 967.248 816.143 956.582 828.991 C 942.08 846.705 927.273 864.169 912.17 881.374 C 901.203 871.573 886.752 859.804 876.669 849.92 C 865.054 838.74 850.517 826.378 838.411 815.524 C 847.606 804.612 856.967 793.842 866.49 783.216 C 874.701 773.562 883.263 763.432 890.975 753.396 C 904.073 737.015 919.27 722.056 932.567 705.258 C 946.816 687.27 965.289 666.894 980.499 649.169 z" fill="rgb(138,54,167)" transform="translate(0,0)"></path>
<path d="M 975.876 779.58 L 987.951 789.305 C 978.574 803.058 967.248 816.143 956.582 828.991 C 942.08 846.705 927.273 864.169 912.17 881.374 C 901.203 871.573 886.752 859.804 876.669 849.92 C 884.044 840.511 891.322 831.021 899.159 821.995 C 907.138 828.472 914.994 835.101 922.721 841.878 C 940.222 822.431 958.757 799.653 975.876 779.58 z" fill="rgb(191,31,24)" transform="translate(0,0)"></path>
<path d="M 890.975 753.396 C 900.074 758.86 913.124 770.22 921.477 777.328 C 912.524 788.639 902.969 799.46 892.854 809.744 C 885.517 801.912 874.45 791.181 866.49 783.216 C 874.701 773.562 883.263 763.432 890.975 753.396 z" fill="rgb(7,187,245)" transform="translate(0,0)"></path>
<path d="M 1104.93 487.203 C 1116.05 474.709 1126.02 462.529 1137.75 450.477 C 1144.55 456.128 1151.66 462.631 1158.35 468.51 C 1162.5 472.083 1165.94 474.916 1170.17 478.35 C 1160 490.404 1149.44 503.183 1138 514.049 C 1128.51 506.413 1118.24 498.485 1110.09 489.487 C 1103.99 497.519 1097.74 505.565 1092 513.848 C 1106.96 515.172 1126.52 518.167 1139.19 527.092 L 1148.06 530.677 C 1140.61 533.9 1128.59 533.847 1119.92 536.682 C 1093.96 545.176 1070.68 566.533 1059.11 591.193 C 1053.54 603.586 1052.51 615.793 1051.85 628.908 L 1058.54 643.146 C 1051.31 640.109 1038.52 623.957 1034.56 616.836 C 1026.71 602.043 1025.64 592.335 1025.98 575.589 C 1014.57 588.437 1004.08 601.836 992.646 614.636 C 1008.29 626.818 1026.28 642.332 1041.21 655.537 L 1020.85 683.376 C 1009.27 673.732 990.988 659.325 980.499 649.169 C 965.289 666.894 946.816 687.27 932.567 705.258 C 921.481 695.936 910.747 688.097 899.815 678.156 C 913.91 658.915 942.171 627.624 958.332 608.925 C 984.855 578.056 1011.08 546.931 1037 515.554 C 1049.7 500.306 1068.17 478.978 1078.86 463.32 C 1087.06 471.463 1095.87 480.066 1104.93 487.203 z" fill="rgb(7,187,245)" transform="translate(0,0)"></path>
<path d="M 1103.86 527.532 C 1118.46 525.101 1124.41 525.673 1139.19 527.092 L 1148.06 530.677 C 1140.61 533.9 1128.59 533.847 1119.92 536.682 C 1093.96 545.176 1070.68 566.533 1059.11 591.193 C 1053.54 603.586 1052.51 615.793 1051.85 628.908 C 1051.23 627.492 1050.65 626.058 1050.11 624.608 C 1034.92 582.773 1064 541.142 1103.86 527.532 z" fill="rgb(241,241,241)" transform="translate(0,0)"></path>
<path d="M 1034.56 616.836 C 1036.91 613.138 1034.49 589.899 1036.61 582.175 C 1041.26 565.206 1049.68 551.59 1063.52 540.491 C 1072.26 533.482 1093.2 521.515 1103.86 527.532 C 1064 541.142 1034.92 582.773 1050.11 624.608 C 1050.65 626.058 1051.23 627.492 1051.85 628.908 L 1058.54 643.146 C 1051.31 640.109 1038.52 623.957 1034.56 616.836 z" fill="rgb(2,143,195)" transform="translate(0,0)"></path>
<path d="M 1148.06 530.677 C 1166.58 538.769 1173.31 543.211 1184.81 560.308 C 1186.1 562.216 1191.37 570.504 1192.59 571.944 C 1194.82 587.664 1197.05 601.271 1191.52 616.644 C 1181.13 645.459 1156.95 666.499 1126.29 670.484 C 1107.3 672.952 1097.56 668.603 1080.14 662.576 C 1071.56 656.469 1065.74 650.737 1058.54 643.146 L 1051.85 628.908 C 1052.51 615.793 1053.54 603.586 1059.11 591.193 C 1070.68 566.533 1093.96 545.176 1119.92 536.682 C 1128.59 533.847 1140.61 533.9 1148.06 530.677 z" fill="rgb(254,230,37)" transform="translate(0,0)"></path>
<path d="M 1192.59 571.944 C 1197.97 577.661 1203.1 588.38 1204.8 596.064 C 1215.41 643.85 1176.97 688.491 1128.06 685.167 C 1109.92 683.935 1092.4 676.283 1080.14 662.576 C 1097.56 668.603 1107.3 672.952 1126.29 670.484 C 1156.95 666.499 1181.13 645.459 1191.52 616.644 C 1197.05 601.271 1194.82 587.664 1192.59 571.944 z" fill="rgb(7,187,245)" transform="translate(0,0)"></path>
<path d="M 1227.87 468.37 C 1324.13 553.804 1421.97 637.427 1521.35 719.195 C 1513.38 727.924 1493.64 748.635 1487.6 757.292 C 1470.99 742.457 1454.61 727.358 1438.48 712.001 C 1429.72 703.81 1418.78 693.103 1409.36 685.854 C 1400.84 695.836 1389.3 710.094 1380.36 719.239 C 1365.45 708.348 1350.65 697.309 1335.97 686.123 C 1322.07 703.407 1307.69 720.293 1293.49 737.324 C 1268.98 766.709 1245.49 796.92 1220.93 826.264 C 1236.81 842.208 1258.63 859.566 1275.82 875.064 C 1271.26 881.091 1267.61 885.788 1261.79 890.744 C 1252.99 898.419 1245.4 907.671 1237.83 916.574 C 1225.87 909.52 1196.24 885.179 1184.37 875.865 C 1146.28 845.879 1108.42 815.613 1070.77 785.072 C 1080.17 774.622 1092.6 759.024 1101.42 748.058 L 1110.57 755.892 C 1120.76 742.276 1133.29 728.176 1144.44 715.142 C 1153.46 723.442 1164.59 732.4 1174.07 740.484 C 1184.97 728.338 1196.79 713.626 1207.56 700.986 C 1227.82 677.51 1247.79 653.791 1267.49 629.836 C 1256.26 620.321 1244.78 610.609 1234.52 600.091 L 1268.81 559.001 C 1245.76 539.678 1222.55 520.55 1199.18 501.618 C 1208.67 490.445 1218.37 479.787 1227.87 468.37 z" fill="rgb(249,43,63)" transform="translate(0,0)"></path>
<path d="M 1513.77 845.534 C 1522.96 853.835 1541.38 871.945 1551.34 876.125 C 1518.56 915.944 1484.39 955.394 1451.24 995.074 C 1427.39 1023.61 1398.15 1060.46 1372.69 1087.01 C 1366.04 1081.67 1360.71 1076.66 1355.27 1070.02 C 1340.65 1085.33 1319.6 1107.32 1303.95 1121.1 C 1298.54 1116.39 1293.09 1111.85 1288.18 1106.62 C 1273.13 1120.99 1255.71 1144.47 1239.69 1160.99 C 1222.77 1147.05 1195.91 1122.02 1179.74 1110.4 C 1174.2 1106 1168.7 1101.57 1163.22 1097.11 C 1152.11 1088.58 1141.04 1079.69 1130.04 1071 L 1225.66 963.87 C 1220.64 959.219 1214.45 954.172 1209.19 949.665 C 1217.26 939.32 1228.91 926.274 1237.83 916.574 C 1245.4 907.671 1252.99 898.419 1261.79 890.744 C 1291.32 916.023 1325.33 940.603 1355.65 965.248 C 1358.01 967.352 1359.92 969.134 1362.15 971.329 C 1372.51 960.578 1390.78 937.677 1399.25 925.537 C 1408.42 933.076 1417.47 940.747 1426.41 948.547 C 1453.16 916.15 1481.51 885.09 1507.77 853.077 C 1509.43 850.774 1511.95 847.812 1513.77 845.534 z" fill="rgb(7,187,245)" transform="translate(0,0)"></path>
<path d="M 1261.79 890.744 C 1291.32 916.023 1325.33 940.603 1355.65 965.248 C 1358.01 967.352 1359.92 969.134 1362.15 971.329 C 1356.94 978.071 1338.27 1000.2 1336.13 1006.1 C 1339.37 1008.6 1343.77 1012.23 1347.12 1014.35 C 1347.42 1015.06 1348.58 1017.24 1347.91 1017.98 C 1328.73 1039.14 1310.08 1060.85 1290.93 1082.06 C 1286.84 1078.03 1285.35 1076.49 1280.51 1073.23 C 1277.51 1070.37 1274.72 1068.08 1271.61 1065.37 C 1265.97 1072.21 1260.53 1079.75 1255.21 1086.89 C 1253.89 1088.64 1252.54 1090.36 1251.16 1092.06 C 1249.01 1094.74 1246.15 1097.8 1243.84 1100.41 C 1232.57 1090.2 1220.88 1081.69 1209.42 1071.92 C 1199.21 1084.69 1189.28 1097.12 1179.74 1110.4 C 1174.2 1106 1168.7 1101.57 1163.22 1097.11 C 1152.11 1088.58 1141.04 1079.69 1130.04 1071 L 1225.66 963.87 C 1220.64 959.219 1214.45 954.172 1209.19 949.665 C 1217.26 939.32 1228.91 926.274 1237.83 916.574 C 1245.4 907.671 1252.99 898.419 1261.79 890.744 z" fill="rgb(138,54,167)" transform="translate(0,0)"></path>
<path d="M 1225.66 963.87 L 1240.31 976.739 C 1226.41 992.446 1210.68 1009.47 1198.78 1026.49 C 1203.1 1030.38 1208.04 1034.61 1212.2 1038.59 C 1199.49 1052.48 1174.46 1081.41 1163.22 1097.11 C 1152.11 1088.58 1141.04 1079.69 1130.04 1071 L 1225.66 963.87 z" fill="rgb(191,31,24)" transform="translate(0,0)"></path>
<path d="M 1355.65 965.248 C 1358.01 967.352 1359.92 969.134 1362.15 971.329 C 1356.94 978.071 1338.27 1000.2 1336.13 1006.1 C 1333.48 1004.68 1330.22 1001.51 1327.99 999.44 C 1336.4 988.504 1346.84 976.08 1355.65 965.248 z" fill="rgb(241,241,241)" transform="translate(0,0)"></path>
<path d="M 1347.12 1014.35 C 1353.19 1017.76 1356.53 1020.74 1361.87 1025.2 C 1342.16 1048.81 1322.13 1070.77 1302.37 1093.94 C 1297.38 1087.79 1296.48 1087.3 1290.93 1082.06 C 1310.08 1060.85 1328.73 1039.14 1347.91 1017.98 C 1348.58 1017.24 1347.42 1015.06 1347.12 1014.35 z" fill="rgb(241,241,241)" transform="translate(0,0)"></path>
<path d="M 1271.61 1065.37 C 1274.72 1068.08 1277.51 1070.37 1280.51 1073.23 C 1272.41 1086.5 1263.15 1098.81 1253.21 1110.77 C 1249.93 1107 1247.23 1104.02 1243.84 1100.41 C 1246.15 1097.8 1249.01 1094.74 1251.16 1092.06 C 1252.54 1090.36 1253.89 1088.64 1255.21 1086.89 C 1260.53 1079.75 1265.97 1072.21 1271.61 1065.37 z" fill="rgb(241,241,241)" transform="translate(0,0)"></path>
<path d="M 1521.35 719.195 C 1540.71 734.736 1561.34 749.868 1580.22 765.726 C 1582.75 767.928 1585.69 770.353 1588.1 772.624 C 1580.94 781.184 1572.12 791.225 1565.7 800.148 C 1574.99 809.056 1584.1 816.769 1593.89 825.104 C 1579.61 842.302 1565.99 859.176 1551.34 876.125 C 1541.38 871.945 1522.96 853.835 1513.77 845.534 C 1511.95 847.812 1509.43 850.774 1507.77 853.077 C 1499.21 845.386 1486.54 835.596 1477.45 828.089 C 1490.61 813.462 1503.41 798.51 1515.83 783.249 C 1506.26 774.771 1496.85 766.117 1487.6 757.292 C 1493.64 748.635 1513.38 727.924 1521.35 719.195 z" fill="rgb(138,54,167)" transform="translate(0,0)"></path>
<path d="M 1580.22 765.726 C 1582.75 767.928 1585.69 770.353 1588.1 772.624 C 1580.94 781.184 1572.12 791.225 1565.7 800.148 C 1574.99 809.056 1584.1 816.769 1593.89 825.104 C 1579.61 842.302 1565.99 859.176 1551.34 876.125 C 1541.38 871.945 1522.96 853.835 1513.77 845.534 C 1516.36 841.911 1520.74 837.219 1523.75 833.813 C 1543.31 811.68 1561.42 788.461 1580.22 765.726 z" fill="rgb(241,241,241)" transform="translate(0,0)"></path>
<path d="M 1283.36 828.046 C 1275.83 807.821 1274.94 788.2 1286.68 769.116 C 1308.09 734.337 1352.54 721.053 1388.19 743.114 C 1391.92 744.377 1397.36 746.022 1400.82 747.57 C 1417.18 754.646 1423.65 761.885 1434.35 776.264 C 1435.1 777.281 1439.99 784.652 1440.35 785.045 C 1449.54 792.537 1455.68 811.496 1456.86 823.101 C 1458.78 841.831 1453.14 860.551 1441.19 875.103 C 1413.76 908.44 1361.77 913.925 1331.79 881.4 C 1323.02 874.88 1311.58 866.81 1306.59 856.875 L 1305.71 857.285 C 1299.52 854.268 1289.05 839.2 1285.69 832.912 C 1284.86 831.253 1284.12 829.742 1283.36 828.046 z" fill="rgb(254,230,37)" transform="translate(0,0)"></path>
<path d="M 1283.36 828.046 C 1275.83 807.821 1274.94 788.2 1286.68 769.116 C 1308.09 734.337 1352.54 721.053 1388.19 743.114 C 1391.92 744.377 1397.36 746.022 1400.82 747.57 C 1393.5 750.992 1383.05 749.908 1375.67 752.785 C 1330.07 770.551 1305.02 796.739 1302.59 845.717 L 1306.59 856.875 L 1305.71 857.285 C 1299.52 854.268 1289.05 839.2 1285.69 832.912 C 1284.86 831.253 1284.12 829.742 1283.36 828.046 z" fill="rgb(241,241,241)" transform="translate(0,0)"></path>
<path d="M 1283.36 828.046 C 1275.83 807.821 1274.94 788.2 1286.68 769.116 C 1308.09 734.337 1352.54 721.053 1388.19 743.114 C 1373.91 742.813 1367.71 742.634 1353.61 745.446 C 1314.92 738.722 1278.75 787.288 1286.41 824.401 C 1285.39 825.61 1284.37 826.825 1283.36 828.046 z" fill="rgb(7,187,245)" transform="translate(0,0)"></path>
<path d="M 1286.41 824.401 C 1278.75 787.288 1314.92 738.722 1353.61 745.446 C 1312.95 760.1 1285.71 800.854 1301.79 843.717 C 1302.05 844.388 1302.31 845.055 1302.59 845.717 L 1306.59 856.875 L 1305.71 857.285 C 1299.52 854.268 1289.05 839.2 1285.69 832.912 C 1284.86 831.253 1284.12 829.742 1283.36 828.046 C 1284.37 826.825 1285.39 825.61 1286.41 824.401 z" fill="url(#Gradient2)" transform="translate(0,0)"></path>
<path d="M 1286.41 824.401 C 1287.59 828.354 1287.65 829.395 1285.69 832.912 C 1284.86 831.253 1284.12 829.742 1283.36 828.046 C 1284.37 826.825 1285.39 825.61 1286.41 824.401 z" fill="rgb(2,143,195)" transform="translate(0,0)"></path>
<path d="M 1440.35 785.045 C 1449.54 792.537 1455.68 811.496 1456.86 823.101 C 1458.78 841.831 1453.14 860.551 1441.19 875.103 C 1413.76 908.44 1361.77 913.925 1331.79 881.4 C 1350.57 888.109 1365.9 891.969 1385.82 886.773 C 1406.59 881.429 1424.33 867.934 1435.02 849.342 C 1447.59 827.186 1446.82 808.64 1440.35 785.045 z" fill="rgb(7,187,245)" transform="translate(0,0)"></path>
<path d="M 1032.22 822.71 C 1035.93 824.864 1059.8 844.804 1065.12 848.957 C 1088.03 866.768 1110.8 884.766 1133.42 902.948 C 1147.06 913.839 1163.66 926.416 1176.05 938.307 L 1026.27 1117 C 1014.95 1130.58 871.085 1306.93 865.931 1309.32 L 719.827 1182.18 C 743.861 1156.29 767.953 1126.57 791.261 1099.73 L 918.672 953.693 C 955.122 911.379 994.683 863.682 1032.22 822.71 z" fill="rgb(249,43,63)" transform="translate(0,0)"></path>
<path d="M 1027.78 909.501 C 1037.25 913.847 1077.71 948.834 1089.21 958.103 C 1051.89 1004.08 1009.65 1047.53 972.175 1093.48 L 970.986 1093.89 C 966.284 1093.23 918.696 1054.07 911.406 1048.24 C 947.996 1002.81 989.863 953.811 1027.78 909.501 z" fill="rgb(254,230,37)" transform="translate(0,0)"></path>
<path d="M 1376.96 1126.76 C 1391 1137.24 1406.28 1150.62 1419.76 1162.06 C 1414.03 1168.4 1371.2 1216.38 1370.48 1221.06 C 1383.15 1230.15 1394.26 1240.96 1407.06 1250.38 C 1392.43 1267.7 1375.91 1285.53 1360.56 1302.3 C 1372.5 1311.68 1386.38 1322.1 1397.54 1332.13 C 1389.09 1344.06 1377.38 1357.68 1368.03 1369.17 L 1316.51 1432.5 C 1277.35 1480.83 1238.46 1531.34 1198.43 1578.86 C 1182.31 1566.66 1166.35 1554.24 1150.57 1541.62 C 1139.83 1532.88 1127.05 1521.52 1116.34 1513.36 C 1096.95 1498.84 1062.8 1470.26 1045.15 1453.79 C 1053.76 1441.86 1068.42 1426.24 1078.51 1414.73 L 1138.3 1346.63 L 1315.51 1146.31 C 1324.11 1153.29 1332.65 1160.34 1341.13 1167.46 C 1353.4 1154.18 1365.35 1140.61 1376.96 1126.76 z" fill="rgb(191,31,24)" transform="translate(0,0)"></path>
<path d="M 1370.48 1221.06 C 1383.15 1230.15 1394.26 1240.96 1407.06 1250.38 C 1392.43 1267.7 1375.91 1285.53 1360.56 1302.3 C 1372.5 1311.68 1386.38 1322.1 1397.54 1332.13 C 1389.09 1344.06 1377.38 1357.68 1368.03 1369.17 L 1316.51 1432.5 C 1277.35 1480.83 1238.46 1531.34 1198.43 1578.86 C 1182.31 1566.66 1166.35 1554.24 1150.57 1541.62 C 1139.83 1532.88 1127.05 1521.52 1116.34 1513.36 L 1297.98 1304.66 L 1344.09 1251.71 C 1350.64 1244.27 1365.23 1228.6 1370.48 1221.06 z" fill="rgb(253,110,31)" transform="translate(0,0)"></path>
<path d="M 761.619 648.678 C 771.992 655.767 779.838 662.605 789.59 669.55 C 796.386 674.493 803.114 679.53 809.772 684.658 C 793.986 702.386 772.995 726.775 758.485 745.385 C 766.028 750.682 772.49 755.193 779.472 761.328 C 768.892 773.887 758.358 786.659 747.142 798.637 L 741.109 792.69 C 718.477 823.086 690.96 854.855 666.961 884.677 L 591.374 978.196 C 578.763 993.918 566.221 1010.59 553.473 1026.04 C 517.638 997.809 482.398 965.889 447.256 936.562 C 436.701 926.885 426.817 918.556 415.761 909.427 C 478.219 837.959 536.707 762.136 599.041 691.174 C 610.123 699.736 621.304 708.167 632.582 716.467 L 634.943 714.615 C 636.934 711.705 639.079 708.903 641.369 706.221 C 651.471 694.224 664.057 677.9 674.658 666.966 C 685.97 675.789 698.027 684.616 709.51 693.33 C 711.458 694.672 718.086 699.418 720.042 699.961 C 733.967 683.082 748.663 666.316 761.619 648.678 z" fill="rgb(253,110,31)" transform="translate(0,0)"></path>
<path d="M 599.041 691.174 C 610.123 699.736 621.304 708.167 632.582 716.467 L 500.872 873.612 C 488.088 888.645 460.23 923.991 447.256 936.562 C 436.701 926.885 426.817 918.556 415.761 909.427 C 478.219 837.959 536.707 762.136 599.041 691.174 z" fill="rgb(254,230,37)" transform="translate(0,0)"></path>
<path d="M 634.943 714.615 C 636.934 711.705 639.079 708.903 641.369 706.221 C 651.471 694.224 664.057 677.9 674.658 666.966 C 685.97 675.789 698.027 684.616 709.51 693.33 C 698.972 709.448 683.107 727.936 669.977 742.113 C 658.301 733.058 646.598 723.74 634.943 714.615 z" fill="rgb(254,230,37)" transform="translate(0,0)"></path>
<path d="M 761.619 648.678 C 771.992 655.767 779.838 662.605 789.59 669.55 C 781.612 683.161 758.839 711.228 747.555 722.272 C 742.92 718.84 723.151 704.127 720.042 699.961 C 733.967 683.082 748.663 666.316 761.619 648.678 z" fill="rgb(254,230,37)" transform="translate(0,0)"></path>
<path d="M 1093.31 1111.24 C 1107.48 1121.47 1121.9 1133.06 1135.63 1143.88 C 1158.16 1161.98 1182.8 1181.13 1204.65 1199.75 L 1120.97 1299.06 C 1105.31 1317.63 1084.54 1343.55 1068.07 1360.36 L 999.85 1303.42 L 959.649 1270.25 C 969.411 1257.19 983.112 1241.97 993.951 1229.32 L 1047.11 1166.92 C 1062.95 1148.46 1078.76 1130.78 1093.31 1111.24 z" fill="rgb(138,54,167)" transform="translate(0,0)"></path>
<path d="M 1093.31 1111.24 C 1107.48 1121.47 1121.9 1133.06 1135.63 1143.88 L 999.85 1303.42 L 959.649 1270.25 C 969.411 1257.19 983.112 1241.97 993.951 1229.32 L 1047.11 1166.92 C 1062.95 1148.46 1078.76 1130.78 1093.31 1111.24 z" fill="rgb(110,32,129)" transform="translate(0,0)"></path>
<path d="M 645.844 984.349 C 685.223 935.431 731.541 877.1 772.637 830.329 C 776.07 832.836 779.62 835.984 782.908 838.746 C 812.19 863.937 852.171 895.915 879.763 922.927 C 852.125 956.632 822.604 989.632 794.775 1023.22 C 781.656 1039.05 763.083 1058.31 751.137 1074.38 L 656.273 993.376 C 652.519 990.436 649.367 987.535 645.844 984.349 z" fill="rgb(138,54,167)" transform="translate(0,0)"></path>
<path d="M 645.844 984.349 C 685.223 935.431 731.541 877.1 772.637 830.329 C 776.07 832.836 779.62 835.984 782.908 838.746 C 767.355 861.18 738.047 895.279 720.149 916.759 C 700.597 940.226 676.344 971.733 656.273 993.376 C 652.519 990.436 649.367 987.535 645.844 984.349 z" fill="url(#Gradient1)" transform="translate(0,0)"></path>
<path d="M 1459.92 322.764 C 1466.12 314.135 1490.56 284.167 1497.68 276.693 C 1509.36 285.048 1520.07 293.932 1532.02 302.118 C 1537.96 306.712 1548.3 313.224 1552.93 317.314 C 1574.15 330.392 1611.47 358.433 1631.73 374.09 C 1621.36 386.555 1607.84 403.403 1596.39 414.831 C 1608.82 424.366 1629.29 440.298 1640.78 450.85 C 1634.88 457.786 1599.5 500.327 1594.58 503.211 C 1591.7 501.99 1591.9 502.068 1589.78 499.738 C 1534.83 448.353 1468.61 396.537 1410.85 347.79 C 1400.94 339.95 1392.05 332.605 1381.95 324.825 C 1390.69 313.172 1403.29 298.44 1412.95 287.135 C 1422.62 294.818 1432.45 302.316 1442.41 309.623 L 1459.92 322.764 z" fill="rgb(249,43,63)" transform="translate(0,0)"></path>
<path d="M 1552.93 317.314 C 1574.15 330.392 1611.47 358.433 1631.73 374.09 C 1621.36 386.555 1607.84 403.403 1596.39 414.831 C 1608.82 424.366 1629.29 440.298 1640.78 450.85 C 1634.88 457.786 1599.5 500.327 1594.58 503.211 C 1591.7 501.99 1591.9 502.068 1589.78 499.738 C 1595.13 449.056 1586.55 388.667 1566.34 341.857 C 1563.31 334.857 1556.9 325.763 1553.29 318.099 L 1552.93 317.314 z" fill="rgb(191,31,24)" transform="translate(0,0)"></path>
<path d="M 1459.92 322.764 C 1466.12 314.135 1490.56 284.167 1497.68 276.693 C 1509.36 285.048 1520.07 293.932 1532.02 302.118 C 1520.49 318.196 1506.08 333.881 1492.05 347.839 C 1479.81 339.478 1471.16 331.339 1459.92 322.764 z" fill="rgb(254,230,37)" transform="translate(0,0)"></path>
<path d="M 1412.95 287.135 C 1422.62 294.818 1432.45 302.316 1442.41 309.623 C 1433.67 320.797 1420.55 337.738 1410.85 347.79 C 1400.94 339.95 1392.05 332.605 1381.95 324.825 C 1390.69 313.172 1403.29 298.44 1412.95 287.135 z" fill="rgb(254,230,37)" transform="translate(0,0)"></path>
<path d="M 1389.37 387.579 C 1392.9 390.034 1396.43 392.464 1399.77 395.189 C 1433.11 422.157 1466.15 449.494 1498.89 477.193 C 1515.46 491.124 1535.21 506.687 1550.89 521.247 C 1525.89 550.388 1499 580.967 1475.49 611.12 L 1328.34 489.979 C 1324.03 486.713 1319.86 483.256 1315.86 479.618 C 1336.62 449.648 1365.8 416.055 1389.37 387.579 z" fill="rgb(254,230,37)" transform="translate(0,0)"></path>
<path d="M 1389.37 387.579 C 1392.9 390.034 1396.43 392.464 1399.77 395.189 C 1377.18 425.753 1351.93 460.983 1328.34 489.979 C 1324.03 486.713 1319.86 483.256 1315.86 479.618 C 1336.62 449.648 1365.8 416.055 1389.37 387.579 z" fill="rgb(241,241,241)" transform="translate(0,0)"></path>
<path d="M 631.55 1176.72 C 640.413 1183.89 647.483 1190.33 655.906 1197.73 C 672.194 1210.92 687.885 1225.22 703.538 1239.18 C 717.743 1251.49 731.789 1263.99 745.675 1276.67 C 752.481 1282.77 761.644 1290.25 767.896 1296.37 L 704.5 1370.06 C 700.496 1366.98 696.412 1363.34 692.565 1360.01 C 675.19 1345 657.032 1330.85 639.6 1315.92 C 623.167 1302.61 607.572 1289.94 592.054 1275.59 C 584.232 1269.44 573.857 1259.55 566.594 1252.57 C 585.65 1229.07 610.711 1198.61 631.55 1176.72 z" fill="rgb(138,54,167)" transform="translate(0,0)"></path>
<path d="M 703.538 1239.18 C 717.743 1251.49 731.789 1263.99 745.675 1276.67 C 752.481 1282.77 761.644 1290.25 767.896 1296.37 L 704.5 1370.06 C 700.496 1366.98 696.412 1363.34 692.565 1360.01 C 675.19 1345 657.032 1330.85 639.6 1315.92 C 642.679 1311.21 652.834 1300.38 657 1295.37 C 672.224 1277.04 689.921 1258.61 703.538 1239.18 z" fill="rgb(191,31,24)" transform="translate(0,0)"></path>
<path d="M 631.55 1176.72 C 640.413 1183.89 647.483 1190.33 655.906 1197.73 C 651.122 1204.02 645.612 1210.54 640.448 1216.56 C 624.07 1235.68 608.707 1256.84 592.054 1275.59 C 584.232 1269.44 573.857 1259.55 566.594 1252.57 C 585.65 1229.07 610.711 1198.61 631.55 1176.72 z" fill="rgb(241,241,241)" transform="translate(0,0)"></path>
<path d="M 767.896 1296.37 C 790.047 1316.49 814.226 1335.7 835.346 1356.6 C 856.097 1374.78 878.304 1394.15 900.439 1410.58 C 879.717 1435.31 858.561 1459.68 836.98 1483.66 L 774.563 1429.47 C 752.04 1411.53 726.899 1388.99 704.5 1370.06 L 767.896 1296.37 z" fill="rgb(138,54,167)" transform="translate(0,0)"></path>
<path d="M 835.346 1356.6 C 856.097 1374.78 878.304 1394.15 900.439 1410.58 C 879.717 1435.31 858.561 1459.68 836.98 1483.66 L 774.563 1429.47 C 780.404 1420.94 791.484 1408.77 798.472 1400.6 C 810.9 1386.05 823.192 1371.38 835.346 1356.6 z" fill="rgb(191,31,24)" transform="translate(0,0)"></path>
<path d="M 1333.25 309.054 C 1340.62 313.106 1359.86 330.194 1366.79 336.161 C 1362.63 342.074 1357.48 348.616 1352.89 354.231 C 1327.26 385.615 1303.04 419.323 1276.38 449.759 C 1258.95 432.916 1239.3 415.504 1221.3 399.141 C 1208.29 387.862 1195.75 376.046 1183.73 363.721 C 1188.57 357.323 1193.14 351.378 1198.98 345.869 C 1207.87 352.899 1218.03 362.084 1226.75 369.573 C 1239.35 356.023 1252.82 339.551 1265.04 325.4 C 1275.76 332.539 1288.24 342.95 1298.53 351.128 C 1310.12 337.806 1321.7 322.739 1333.25 309.054 z" fill="rgb(241,241,241)" transform="translate(0,0)"></path>
<path d="M 1587.46 555.769 C 1597.7 564.74 1608.6 573.167 1618.98 582.307 C 1609.51 594.147 1599.58 605.608 1589.2 616.662 C 1599.8 624.378 1611.69 635.16 1621.41 643.911 C 1606.34 659.632 1590.73 680.569 1575.3 697.414 C 1569.55 695.36 1520.63 651.72 1513.03 644.92 C 1535.78 615.755 1563.66 585.094 1587.46 555.769 z" fill="rgb(7,187,245)" transform="translate(0,0)"></path>
<path d="M 1187.22 431.121 C 1191.39 434.254 1223.98 464.22 1227.87 468.37 C 1218.37 479.787 1208.67 490.445 1199.18 501.618 C 1191.27 494.827 1178.7 484.868 1170.17 478.35 C 1165.94 474.916 1162.5 472.083 1158.35 468.51 C 1166.34 457.389 1181.14 440.987 1187.22 431.121 z" fill="rgb(138,54,167)" transform="translate(0,0)"></path>
<path d="M 809.798 309.621 C 820.102 317.706 831.137 326.061 841.235 334.301 C 820.949 359.56 800.178 384.426 778.935 408.885 C 790.954 417.642 803.337 428.054 814.966 437.486 C 793.961 465.438 768.07 493.746 746.073 521.454 C 742.489 526.104 738.978 530.81 735.542 535.57 C 725.052 528.113 711.247 516.869 701.68 508.399 C 690.589 522.151 676.141 540.097 664.24 552.678 C 653.043 543.831 639.93 533.05 629.715 523.192 C 640.598 508.421 655.027 493.246 664.934 479.015 C 656.429 471.998 648.02 464.864 639.711 457.616 C 660.83 431.396 682.17 405.355 703.731 379.497 C 711.977 367.7 730.884 346.18 740.612 334.734 C 750.149 342.806 760.191 350.861 769.864 358.821 C 782.026 342.71 796.979 326.131 809.798 309.621 z" fill="rgb(254,143,30)" transform="translate(0,0)"></path>
<path d="M 703.731 379.497 C 711.977 367.7 730.884 346.18 740.612 334.734 C 750.149 342.806 760.191 350.861 769.864 358.821 C 767.219 365.59 752.035 381.55 746.578 387.622 L 773.352 408.314 C 766.595 421.376 726.704 469.428 715.53 481.028 C 708.392 476.418 701.114 471.575 693.789 467.309 L 685.902 477.843 C 679.547 472.28 673.157 466.758 666.731 461.277 C 678.392 446.03 697.872 421.289 710.791 407.614 C 714.711 411.144 719.965 415.536 723.244 419.503 C 727.11 414.114 729.44 411.309 733.875 406.402 C 727.403 400.45 707.75 384.289 703.731 379.497 z" fill="rgb(254,230,37)" transform="translate(0,0)"></path>
<path d="M 664.934 479.015 C 671.972 485.178 679.101 491.235 686.32 497.185 C 690.184 492.617 694.336 487.486 698.295 483.075 C 711.98 493.947 733.292 510.015 746.073 521.454 C 742.489 526.104 738.978 530.81 735.542 535.57 C 725.052 528.113 711.247 516.869 701.68 508.399 C 690.589 522.151 676.141 540.097 664.24 552.678 C 653.043 543.831 639.93 533.05 629.715 523.192 C 640.598 508.421 655.027 493.246 664.934 479.015 z" fill="rgb(138,54,167)" transform="translate(0,0)"></path>
<path d="M 1801.33 847.446 C 1811.69 855.666 1821.82 863.834 1832.59 871.526 C 1813.19 895.422 1792.46 922.335 1772.58 945.331 C 1784.23 954.323 1795.83 963.384 1807.38 972.512 L 1739.72 1056.89 C 1736.91 1060.88 1732.23 1065.25 1728.72 1068.8 C 1717.93 1061.23 1708.26 1052.35 1698.67 1043.36 C 1686.25 1058.33 1674.46 1073.06 1661.36 1087.48 L 1626.01 1058.77 C 1638.25 1044.3 1650.81 1029.42 1661.89 1014.06 C 1652.44 1006.72 1644.7 1000.78 1635.77 992.714 C 1656.62 966.551 1677.86 940.712 1699.51 915.207 C 1710.82 901.148 1722.68 885.871 1734.76 872.615 C 1744.29 880.154 1753.68 887.878 1762.91 895.783 C 1773.18 881.777 1789.99 860.583 1801.33 847.446 z" fill="rgb(254,143,30)" transform="translate(0,0)"></path>
<path d="M 1734.76 872.615 C 1744.29 880.154 1753.68 887.878 1762.91 895.783 C 1759.31 902.657 1746.45 918.097 1740.84 925.058 C 1748.7 930.911 1761.61 939.607 1768.71 945.537 C 1751.91 964.186 1724.27 996.98 1709.07 1017.12 C 1701.48 1012.12 1696.75 1006.89 1689.84 1001.48 C 1687.2 1004.69 1684.03 1008.34 1681.6 1011.65 C 1675.2 1006.36 1668.43 1001.75 1662.23 996.564 C 1676.78 978.053 1691.67 962.182 1705.17 942.676 C 1708.6 946.531 1712.59 950.796 1715.8 954.738 C 1720.15 950.026 1724.71 944.899 1729.14 940.323 C 1720.28 933.294 1707.72 922.918 1699.51 915.207 C 1710.82 901.148 1722.68 885.871 1734.76 872.615 z" fill="rgb(254,230,37)" transform="translate(0,0)"></path>
<path d="M 1661.89 1014.06 L 1683.22 1031.95 L 1693.69 1019.11 C 1707.85 1030.15 1726.2 1044.84 1739.72 1056.89 C 1736.91 1060.88 1732.23 1065.25 1728.72 1068.8 C 1717.93 1061.23 1708.26 1052.35 1698.67 1043.36 C 1686.25 1058.33 1674.46 1073.06 1661.36 1087.48 L 1626.01 1058.77 C 1638.25 1044.3 1650.81 1029.42 1661.89 1014.06 z" fill="rgb(138,54,167)" transform="translate(0,0)"></path>
<path d="M 1753.02 1109.85 C 1764.71 1119.61 1781.89 1135.76 1792.8 1146.38 C 1779.42 1164.24 1593.06 1365.54 1591.37 1366.22 C 1578.92 1352.81 1562.02 1339.49 1548.51 1325.96 C 1596.81 1275.91 1643.45 1224.89 1691.42 1174.6 C 1711.19 1153.86 1732.67 1129.38 1753.02 1109.85 z" fill="rgb(0,0,0)" transform="translate(0,0)"></path>
<path d="M 377.086 1024.04 C 383.19 1028.96 392.115 1035.74 397.623 1040.97 C 389.355 1051.45 376.844 1063.3 370.082 1072.52 C 373.452 1075.05 376.893 1077.71 380.292 1080.17 C 365.565 1096.76 351.928 1112.18 335.921 1127.62 C 339.348 1131.11 343.125 1134.8 346.429 1138.34 C 329.433 1157.78 311.621 1176.5 293.041 1194.43 C 288.813 1189.86 285.653 1186.42 281.209 1182.09 C 278.58 1184.82 276.129 1187.63 273.535 1190.31 C 269.127 1186.12 265.308 1183.4 260.428 1179.8 C 249.472 1193.99 231.321 1211.88 218.422 1227.77 C 208.751 1218.91 196.598 1209.59 187.829 1200.21 C 196.544 1190.36 206.337 1179.85 214.731 1169.97 C 208.284 1163.64 202.034 1158.41 195.133 1152.58 C 198.734 1148.85 202.293 1145.07 205.808 1141.25 L 239.781 1102.36 C 251.456 1112.46 262.858 1122.15 275.364 1131.21 C 286.44 1120.38 296.016 1109.59 306.365 1098.04 C 302.17 1094.37 297.867 1090.96 293.736 1087.26 C 296.883 1083.75 299.17 1081.16 302.604 1077.88 C 313.14 1066.95 322.959 1055.26 332.846 1043.73 C 338.065 1047.73 343.349 1051.63 348.696 1055.45 C 358.47 1045.26 367.938 1034.79 377.086 1024.04 z" fill="rgb(254,230,37)" transform="translate(0,0)"></path>
<path d="M 377.086 1024.04 C 383.19 1028.96 392.115 1035.74 397.623 1040.97 C 389.355 1051.45 376.844 1063.3 370.082 1072.52 C 373.452 1075.05 376.893 1077.71 380.292 1080.17 C 365.565 1096.76 351.928 1112.18 335.921 1127.62 C 339.348 1131.11 343.125 1134.8 346.429 1138.34 C 329.433 1157.78 311.621 1176.5 293.041 1194.43 C 288.813 1189.86 285.653 1186.42 281.209 1182.09 C 278.58 1184.82 276.129 1187.63 273.535 1190.31 C 269.127 1186.12 265.308 1183.4 260.428 1179.8 C 261.531 1176.06 263.22 1174.67 265.901 1171.68 L 268.406 1171.81 C 279.887 1162.88 297.492 1141.49 309.423 1129.84 C 313.403 1128.86 310.766 1132.78 315.405 1133.84 C 324.612 1125.46 337.498 1109.37 345.751 1099.39 C 340.408 1094.07 332.823 1087.8 327.032 1082.74 C 332.342 1075.56 346.764 1062.59 348.696 1055.45 C 358.47 1045.26 367.938 1034.79 377.086 1024.04 z" fill="rgb(254,143,30)" transform="translate(0,0)"></path>
<path d="M 205.808 1141.25 C 212.975 1148.89 233.751 1165.29 242.608 1172.2 C 245.79 1168.26 248.753 1164.72 252.057 1160.88 C 256.578 1164.55 261.588 1168.01 265.901 1171.68 C 263.22 1174.67 261.531 1176.06 260.428 1179.8 C 249.472 1193.99 231.321 1211.88 218.422 1227.77 C 208.751 1218.91 196.598 1209.59 187.829 1200.21 C 196.544 1190.36 206.337 1179.85 214.731 1169.97 C 208.284 1163.64 202.034 1158.41 195.133 1152.58 C 198.734 1148.85 202.293 1145.07 205.808 1141.25 z" fill="rgb(249,43,63)" transform="translate(0,0)"></path>
<path d="M 293.736 1087.26 C 296.883 1083.75 299.17 1081.16 302.604 1077.88 L 303.954 1079.23 C 307.422 1082.84 311.469 1086.02 315.268 1089.3 C 312.334 1092.17 309.336 1095.23 306.365 1098.04 C 302.17 1094.37 297.867 1090.96 293.736 1087.26 z" fill="rgb(253,110,31)" transform="translate(0,0)"></path>
<path d="M 1435.77 1584.52 C 1444.04 1591.6 1471.1 1616.03 1477.8 1623.82 C 1466.53 1635.99 1453.82 1648.37 1442.2 1660.58 C 1453.6 1672.02 1465.07 1683.38 1476.62 1694.65 C 1463.96 1707.11 1451.4 1719.67 1438.93 1732.32 C 1437.73 1733.3 1438.5 1732.9 1436.46 1733.14 C 1429.24 1727.74 1407.29 1705.54 1400.96 1698.77 C 1389.57 1711.52 1380.02 1721.51 1367.45 1733.02 C 1353.59 1719.27 1339.63 1705.62 1325.56 1692.08 C 1336.58 1680.57 1347.67 1669.13 1358.85 1657.78 C 1347.35 1646.39 1335.74 1635.12 1324.02 1623.96 C 1337.02 1610.86 1350.14 1597.88 1363.39 1585.02 C 1374.58 1593.3 1390.08 1609.71 1399.96 1619.91 C 1411.37 1609.51 1424.58 1595.64 1435.77 1584.52 z" fill="rgb(241,241,241)" transform="translate(0,0)"></path>
<path d="M 1063.42 1628.98 C 1072.49 1636.44 1083.42 1645.56 1092.09 1653.35 C 1086.08 1660.03 1063.9 1686.97 1059.58 1690.7 C 1066.55 1695.3 1070.28 1698.34 1076.53 1704.04 C 1058.88 1726.33 1037.07 1750.94 1018.44 1772.73 C 1016.13 1775.8 1012.95 1779.29 1010.38 1782.2 L 985.898 1760.22 C 976.385 1772.87 965.065 1784.98 954.436 1796.72 L 925.639 1771.97 L 952.298 1738.7 C 948.031 1734.74 944.287 1731.68 940.068 1727.57 C 943.679 1723.07 947.159 1719.06 950.888 1714.67 C 960.769 1700.93 982.814 1676.18 994.384 1663.39 C 1002.98 1669.97 1009.99 1675.68 1017.8 1683.21 C 1021.64 1677.95 1026.64 1672.39 1030.98 1667.49 C 1042.1 1654.93 1052.28 1641.51 1063.42 1628.98 z" fill="rgb(254,230,37)" transform="translate(0,0)"></path>
<path d="M 1063.42 1628.98 C 1072.49 1636.44 1083.42 1645.56 1092.09 1653.35 C 1086.08 1660.03 1063.9 1686.97 1059.58 1690.7 C 1054.06 1694.19 1026.56 1723.66 1020.7 1729.89 C 1016.89 1726.55 1013.01 1723.91 1009.19 1720.74 L 997.342 1710.74 C 1003.68 1702.74 1011.59 1693.57 1016.8 1684.85 L 1017.8 1683.21 C 1021.64 1677.95 1026.64 1672.39 1030.98 1667.49 C 1042.1 1654.93 1052.28 1641.51 1063.42 1628.98 z" fill="rgb(254,143,30)" transform="translate(0,0)"></path>
<path d="M 950.888 1714.67 C 969.226 1732.84 997.714 1757.48 1018.44 1772.73 C 1016.13 1775.8 1012.95 1779.29 1010.38 1782.2 L 985.898 1760.22 C 976.385 1772.87 965.065 1784.98 954.436 1796.72 L 925.639 1771.97 L 952.298 1738.7 C 948.031 1734.74 944.287 1731.68 940.068 1727.57 C 943.679 1723.07 947.159 1719.06 950.888 1714.67 z" fill="rgb(249,43,63)" transform="translate(0,0)"></path>
<path d="M 351.724 617.635 C 353.884 619.142 363.608 628.276 366.252 630.646 C 377.486 640.581 388.602 650.648 399.599 660.844 C 368.29 692.662 339.357 727.47 307.962 759.196 C 306.521 758.256 295.551 747.722 293.53 745.819 C 282.616 735.472 271.629 725.203 260.569 715.013 C 291.161 685.109 321.859 648.987 351.724 617.635 z" fill="rgb(7,187,245)" transform="translate(0,0)"></path>
<path d="M 1842.25 585.959 C 1849.63 592.261 1857.1 598.467 1864.39 604.878 C 1855.19 617.347 1844.19 627.699 1834.29 639.238 L 1852.85 655.474 C 1840.13 671.008 1824.68 687.808 1811.15 702.644 C 1809.09 705.194 1807.09 707.219 1804.84 709.572 C 1798.07 703.597 1793.28 699.069 1786.99 692.57 C 1782.18 695.743 1764.31 716.723 1758.96 722.218 C 1750.39 714.108 1742.69 708.381 1734.01 700.825 C 1741.88 691.864 1749.77 682.12 1757.98 673.531 C 1753.1 669.262 1748.71 665.648 1743.76 661.532 C 1746.37 658.276 1748.85 654.936 1751.55 651.77 C 1758.91 641.839 1783.27 614.41 1792 605.19 C 1798.56 610.646 1804.62 615.43 1810.99 621.19 L 1813.59 618.249 C 1823.04 607.66 1832.84 596.258 1842.25 585.959 z" fill="rgb(254,230,37)" transform="translate(0,0)"></path>
<path d="M 1842.25 585.959 C 1849.63 592.261 1857.1 598.467 1864.39 604.878 C 1855.19 617.347 1844.19 627.699 1834.29 639.238 C 1831.86 639.806 1811.78 660.448 1808.08 664.063 C 1801.31 658.487 1794.7 653.056 1786.98 648.886 L 1810.99 621.19 L 1813.59 618.249 C 1823.04 607.66 1832.84 596.258 1842.25 585.959 z" fill="rgb(254,143,30)" transform="translate(0,0)"></path>
<path d="M 1769.51 667.73 L 1792.81 687.894 C 1790.79 690.229 1789.62 690.888 1786.99 692.57 C 1782.18 695.743 1764.31 716.723 1758.96 722.218 C 1750.39 714.108 1742.69 708.381 1734.01 700.825 C 1741.88 691.864 1749.77 682.12 1757.98 673.531 C 1761.99 669.622 1762.03 668.833 1767.78 668.018 L 1769.51 667.73 z" fill="rgb(138,54,167)" transform="translate(0,0)"></path>
<path d="M 1743.76 661.532 C 1746.37 658.276 1748.85 654.936 1751.55 651.77 C 1754.64 654.581 1757.79 657.322 1761 659.988 C 1764 662.481 1766.68 665.048 1769.51 667.73 L 1767.78 668.018 C 1762.03 668.833 1761.99 669.622 1757.98 673.531 C 1753.1 669.262 1748.71 665.648 1743.76 661.532 z" fill="rgb(213,42,102)" transform="translate(0,0)"></path>
<path d="M 1792.81 687.894 C 1798.16 691.418 1805.21 698.512 1811.15 702.644 C 1809.09 705.194 1807.09 707.219 1804.84 709.572 C 1798.07 703.597 1793.28 699.069 1786.99 692.57 C 1789.62 690.888 1790.79 690.229 1792.81 687.894 z" fill="rgb(213,42,102)" transform="translate(0,0)"></path>
<path d="M 1552.61 1423.65 C 1554.95 1425.88 1570.22 1472.33 1572.81 1479.82 C 1591.21 1485.89 1611.07 1493.31 1629.3 1499.94 C 1612.41 1505.17 1588.83 1513.52 1572.35 1519.83 C 1566.74 1537.04 1559.5 1558.94 1552.84 1575.5 C 1546.43 1562.05 1537.27 1533.35 1532.83 1518.68 L 1474.53 1498.95 C 1491.86 1492.27 1514.85 1485.3 1532.85 1479.31 L 1552.61 1423.65 z" fill="rgb(7,187,245)" transform="translate(0,0)"></path>
<path d="M 419.4 422.728 C 422.739 426.914 436.169 466.559 439.438 475.021 C 457.441 480.428 475.464 486.999 493.223 493.245 C 477.087 500.099 455.725 505.743 438.505 511.809 C 433.045 529.161 427.003 546.325 420.39 563.272 L 419.58 563.473 C 417.125 559.596 403.572 517.909 401.82 511.847 C 383.935 504.775 365.647 499.534 347.386 493.41 C 365.045 486.898 382.865 480.835 400.83 475.225 C 407.181 459.598 413.729 438.972 419.4 422.728 z" fill="rgb(241,241,241)" transform="translate(0,0)"></path>
<path d="M 1742.02 1352.56 C 1747.16 1354.87 1787.78 1393.93 1794.37 1400.05 C 1776.68 1418.2 1758.83 1435.63 1741.64 1454.29 L 1740.49 1454.78 C 1735.7 1452.64 1695.47 1413.3 1689.22 1407.4 C 1706.96 1389.25 1724.56 1370.97 1742.02 1352.56 z" fill="rgb(7,187,245)" transform="translate(0,0)"></path>
<path d="M 1848.73 299.698 C 1858.29 308.316 1868.27 316.434 1878.18 324.641 C 1846.19 359.109 1814.74 394.065 1783.82 429.496 C 1780.53 429.528 1758.34 407.682 1754.73 404.147 C 1785.62 369.564 1819.13 335.403 1848.73 299.698 z" fill="rgb(7,187,245)" transform="translate(0,0)"></path>
<path d="M 1298.02 1765.87 C 1306.81 1775.18 1316.55 1783.69 1326.05 1792.28 C 1316.95 1802.86 1305.42 1814.7 1295.88 1825.16 C 1278.39 1844.6 1260.73 1863.88 1242.9 1882.99 C 1234.02 1875.82 1223 1865.27 1214.35 1857.42 C 1242.13 1829.16 1271.18 1795.53 1298.02 1765.87 z" fill="rgb(7,187,245)" transform="translate(0,0)"></path>
<path d="M 545.761 288.714 C 550.072 292.155 556.345 298.937 560.687 302.955 L 592.994 332.589 C 576.732 349.339 560.183 367.178 544.145 384.232 C 528.332 369.006 514.563 354.513 497.785 338.984 C 510.693 323.815 531.277 302.819 545.761 288.714 z" fill="rgb(7,187,245)" transform="translate(0,0)"></path>
<path d="M 1622.03 169.028 L 1688.65 168.963 C 1688.93 191.364 1688.99 213.767 1688.84 236.17 C 1666.74 235.956 1644.64 235.88 1622.53 235.944 C 1621.63 214.525 1621.96 190.527 1622.03 169.028 z" fill="rgb(0,0,0)" transform="translate(0,0)"></path>
<path d="M 1190.54 1699.85 C 1206.78 1714.9 1218.89 1727.56 1236.61 1742.11 C 1222.71 1757.1 1204.08 1776.87 1189.55 1791 C 1183.43 1786.18 1176 1778.2 1170.17 1772.8 C 1161.35 1764.63 1151.82 1756.04 1143.7 1747.19 C 1158.34 1731.94 1175.49 1715.04 1190.54 1699.85 z" fill="rgb(7,187,245)" transform="translate(0,0)"></path>
<path d="M 1801.85 463.643 C 1806.29 464.96 1842.11 501.321 1848.01 507.115 C 1833.11 522.265 1818.97 538.005 1803.95 552.801 C 1787.74 538.49 1772.56 523.008 1756.81 508.344 C 1772.34 493.548 1786.64 478.363 1801.85 463.643 z" fill="rgb(0,0,0)" transform="translate(0,0)"></path>
<path d="M 1294.32 123.529 C 1299.73 125.059 1316.74 142.917 1321.56 147.713 C 1297.09 173.575 1272.67 201.563 1248.94 228.163 C 1239.17 219.278 1229.59 210.191 1220.19 200.909 C 1224.07 196.684 1228.5 192.445 1232.54 188.343 C 1253.46 167.107 1273.3 144.646 1294.32 123.529 z" fill="rgb(0,0,0)" transform="translate(0,0)"></path>
<path d="M 237.417 868.632 C 238.709 869.005 274.401 903.911 278.563 908.204 C 265.114 921.691 250.777 935.146 238.209 949.38 C 234.29 946.782 200.739 912.61 196.752 908.057 C 210.671 894.899 223.685 881.66 237.417 868.632 z" fill="rgb(0,0,0)" transform="translate(0,0)"></path>
<path d="M 1791.05 106.555 C 1794.92 111.158 1803.3 138.965 1805.52 146.042 C 1817.89 149.523 1832.42 154.492 1844.54 158.773 C 1831.28 163.522 1818 168.2 1804.7 172.804 C 1800.8 184.787 1796.01 197.504 1791.73 209.433 C 1788.76 206.579 1779.86 179.172 1777.44 172.505 L 1738.68 158.83 C 1748.99 154.312 1767.08 148.625 1778 145.209 C 1782.14 132.253 1786.49 119.366 1791.05 106.555 z" fill="rgb(241,241,241)" transform="translate(0,0)"></path>
<path d="M 550.96 548.539 C 553.926 549.924 584.644 579.349 588.918 583.691 C 579.32 595.703 563.966 611.063 553.012 622.436 C 551.581 621.902 518.385 588.866 515.124 585.631 C 525.781 575.204 541.484 559.783 550.96 548.539 z" fill="rgb(7,187,245)" transform="translate(0,0)"></path>
<path d="M 858.192 1812.77 C 862.026 1823.75 866.377 1834.39 869.836 1845.53 L 871.074 1849.46 C 882.549 1853.56 895.895 1857.79 907.665 1861.14 C 895.825 1866.22 882.707 1870.77 870.435 1874.91 C 866.275 1884.87 861.929 1897.63 857.999 1908 C 857.798 1907.98 857.597 1907.96 857.396 1907.94 C 855.971 1906.44 847.107 1879.02 846.036 1875.49 L 845.681 1874.28 L 845.126 1872.5 C 832.97 1868.78 821.094 1865.9 809.21 1861.07 C 819.333 1858.51 836.115 1852.81 846.112 1848.72 C 849.515 1836.97 854.301 1824.55 858.192 1812.77 z" fill="rgb(7,187,245)" transform="translate(0,0)"></path>
<path d="M 976.219 239.55 C 979.411 240.598 1007.32 267.052 1012.05 271.343 C 1001.38 282.59 990.791 294.267 980.032 305.446 C 978.196 304.795 947.743 276.08 943.981 272.638 C 954.005 262.319 966.091 249.341 976.219 239.55 z" fill="rgb(7,187,245)" transform="translate(0,0)"></path>
<path d="M 191.518 1661.76 C 195.13 1667.57 200.582 1686 201.765 1692.98 C 211.486 1695.99 226.193 1700.95 235.226 1704.85 C 224.528 1708.83 213.755 1712.72 202.721 1715.7 C 199.519 1726.54 195.365 1736.61 192.161 1747 C 189.662 1744.69 182.378 1720.77 180.593 1715.73 C 170.721 1712.74 158.683 1708.39 149.309 1704.02 C 160.106 1700.13 170.229 1697.45 181.073 1694.01 C 184.443 1682.85 187.254 1672.76 191.518 1661.76 z" fill="rgb(241,241,241)" transform="translate(0,0)"></path>
<path d="M 1555.27 1115.68 C 1560.62 1125.67 1562.63 1137.37 1566.59 1146.93 C 1576.92 1150.7 1588.18 1154.12 1598.17 1158.07 C 1588.37 1162.1 1576.82 1166.29 1566.67 1169.36 C 1562.95 1178.99 1559.48 1188.71 1555.63 1198.28 C 1553.26 1195.44 1546.43 1173.89 1545.03 1169.24 C 1534.59 1166.18 1523.36 1162.64 1513.56 1157.96 C 1523.35 1154.42 1534.61 1150.54 1544.55 1147.27 C 1548.39 1136.83 1551.8 1126.24 1555.27 1115.68 z" fill="rgb(241,241,241)" transform="translate(0,0)"></path>
<path d="M 281.209 1182.09 C 285.653 1186.42 288.813 1189.86 293.041 1194.43 C 297.494 1198.97 301.701 1202.58 306.217 1206.94 C 299.041 1216.41 290.397 1225.26 281.961 1233.62 C 273.467 1225.3 265.555 1217.68 255.445 1211.4 C 261.066 1205.01 267.998 1196.05 273.535 1190.31 C 276.129 1187.63 278.58 1184.82 281.209 1182.09 z" fill="rgb(7,187,245)" transform="translate(0,0)"></path>
<path d="M 1840.67 807.571 C 1843.74 808.656 1859.79 823.266 1863.42 826.358 C 1857.03 834.131 1850.17 841.741 1843.83 849.48 C 1840.59 848.375 1825.84 834.019 1821.42 830.386 C 1826.23 824.983 1830.9 819.457 1835.43 813.813 C 1837.37 811.382 1838.55 809.936 1840.67 807.571 z" fill="rgb(138,54,167)" transform="translate(0,0)"></path>
<path d="M 852.713 268.649 C 859.022 273.324 866.179 280.035 873.008 285.069 L 875.991 287.228 C 869.532 294.989 863.151 301.379 856.711 309.248 C 851.438 306.814 838.364 294.647 833.642 290.432 C 840.109 282.85 845.687 275.811 852.713 268.649 z" fill="rgb(138,54,167)" transform="translate(0,0)"></path>
<path d="M 1865.57 553.503 C 1871.26 557.479 1880.17 566.12 1885.78 570.877 C 1880.04 577.349 1874.17 583.04 1868.26 589.313 C 1861.29 583.488 1856.71 579.208 1848.89 573.947 C 1853.95 567.202 1860.2 560.226 1865.57 553.503 z" fill="rgb(138,54,167)" transform="translate(0,0)"></path>
<path d="M 653.667 372.672 L 672.466 386.756 C 666.858 393.04 661.125 399.112 655.823 405.653 C 654.295 405.691 654.329 405.643 652.93 404.59 C 647.529 400.497 642.345 396.127 637.398 391.496 C 642.813 385.216 648.062 378.785 653.667 372.672 z" fill="rgb(254,143,30)" transform="translate(0,0)"></path>
<path d="M 1103.88 1593.6 C 1105.78 1594.73 1119.22 1607.7 1122.27 1610.42 C 1116.43 1616.16 1112.09 1620.79 1106.7 1626.87 C 1105.24 1626.76 1105.21 1626.7 1103.97 1625.59 L 1088.59 1612.09 L 1103.88 1593.6 z" fill="rgb(138,54,167)" transform="translate(0,0)"></path>
<path d="M 1650.01 908.866 C 1656.47 914.299 1660.86 918.215 1667.74 923.392 C 1662.03 928.791 1657.11 933.652 1651.76 939.448 C 1648.79 939.908 1636.91 928.702 1634.41 926.437 C 1640.01 920.363 1644.75 915.322 1650.01 908.866 z" fill="rgb(254,143,30)" transform="translate(0,0)"></path>
<path d="M 264.187 1296.62 C 266.412 1297.51 277.225 1307.53 279.791 1309.74 C 274.417 1316.07 269.416 1321.46 264.224 1328.04 C 258.628 1323.52 252.789 1319.03 247.35 1314.39 C 252.869 1308.38 258.482 1302.46 264.187 1296.62 z" fill="rgb(254,230,37)" transform="translate(0,0)"></path>
<metadata><recraft-signature>{"signed_by": "recraft", "signature_b64": "7j/QxqOzWDcJvm+Rez0mLS/AKYXWFGhWvh1ZnV5mzETruC5wXu9m6beQQFSYx/tHgVmKwPlettk7b0stEl91Cg==", "signing_algo": "Ed25519", "generation_timestamp": 1776943541, "identifier": "7f56614b-cd53-475f-8b29-b0a43edc2abf"}</recraft-signature></metadata></svg>